<svg xmlns="http://www.w3.org/2000/svg" viewBox="0 0 1404.6980023 1220.6980529"><path d="M0 0h1404.698v1218.011H0z" style="fill:#fff"/><path d="m422.835 300.325 292.92-166.368M422.835 300.325 543.7 375.688M81.962 508.232l199.415 124.341M81.962 755.372l199.415 124.341M715.756 133.957l120.865 75.364M836.621 209.32l-292.92 166.368M1314.631 60.998l-92.728 52.666M1214.857 1.087l-92.728 52.666M1315.16 153.579l-92.728 52.666M836.621 304.59 543.701 470.96M422.835 300.325v95.27M543.7 375.688v95.27M1122.129 53.753l99.774 59.911M1122.129 149.023l99.774 59.912M1122.129 53.753v95.27M1221.903 113.664v95.27M970.118 140.24l99.774 59.911" style="fill:none;stroke:#231815;stroke-miterlimit:10;stroke-width:2.5px"/><path d="m1011.475 101.388 91.037 54.666" style="fill:none;stroke:#231815;stroke-miterlimit:10;stroke-width:1.25px"/><path d="m1100.589 154.899-.03-5.272.184-.008 4.794 6.281 5.712 5.4-7.45-2.504-7.798-1.28-.092-.145 4.68-2.472Z" style="fill:#231815"/><path d="m349.501 422.635 108.604 65.214" style="fill:none;stroke:#231815;stroke-miterlimit:10;stroke-width:1.25px"/><path d="m456.182 486.694-.03-5.272.184-.008 4.794 6.281 5.712 5.4-7.45-2.504-7.798-1.28-.092-.145 4.68-2.472Z" style="fill:#231815"/><path d="m1003.143 255.34 66.749 40.081M970.118 140.24v75.54M1069.892 200.151v95.27M903.37 175.7l99.773 59.912M903.37 270.97l99.773 59.912M903.37 175.7v95.27M1003.143 235.612v95.27M836.621 209.32v95.27M422.835 395.595l60.433 75.364M543.7 470.959h-60.432M422.835 488.829l51.368-29.175M422.835 584.1 543.7 659.461M836.621 397.824l-292.92 166.368M836.621 493.095l-292.92 166.367M422.835 488.829v95.27M543.7 564.192v95.27M836.621 397.824v95.27M543.322 563.66c-13.458 9.576-37.349 9.55-62.76-1.876-35.943-16.164-61.317-49.017-56.675-73.38M836.621 397.106c-13.459 9.575-37.35 9.55-62.76-1.877-16.923-7.61-31.503-18.92-41.71-31.302M1315.16 153.177v-92.58M1214.857 1.087l99.774 59.911M81.962 508.232v247.14M281.377 632.573v247.14" style="fill:none;stroke:#231815;stroke-miterlimit:10;stroke-width:2.5px"/><path d="M225.9 718.526c-23.67-12.277-20.419-34.383-41.988-45.57-21.57-11.188-29.02 8.74-52.69-3.537 23.67 12.277 20.42 34.383 41.988 45.57 21.57 11.188 29.02-8.74 52.69 3.537Z" style="fill:none;stroke:#00a0e9;stroke-miterlimit:10;stroke-width:5px"/><ellipse cx="953.2564614" cy="253.2910515" rx="8.7410294" ry="13.0050369" style="fill:none;stroke:#231815;stroke-miterlimit:10;stroke-width:2.5px" transform="rotate(-39.346 953.256 253.291)"/><ellipse cx="1018.1050702" cy="217.1412389" rx="8.7410294" ry="13.0050369" style="fill:none;stroke:#231815;stroke-miterlimit:10;stroke-width:2.5px" transform="rotate(-39.346 1018.105 217.141)"/><ellipse cx="1172.0158479" cy="131.3438351" rx="8.7410294" ry="13.0050369" style="fill:none;stroke:#231815;stroke-miterlimit:10;stroke-width:2.5px" transform="rotate(-39.346 1172.016 131.344)"/><path d="m953.256 253.291-124.083 69.17M1018.105 217.141l-23.71 13.217M1172.016 131.344l-112.383 62.647" style="fill:none;stroke:#00a0e9;stroke-miterlimit:10;stroke-width:5px"/><path d="m281.377 650.263-2.146 1.284" style="fill:none;stroke:#00a0e9;stroke-miterlimit:10;stroke-width:1.25px"/><path d="m277.112 652.815-100.696 60.257" style="fill:none;stroke:#00a0e9;stroke-dasharray:0 0 4.940959 2.4704795;stroke-miterlimit:10;stroke-width:1.25px"/><path d="m175.356 713.706-2.146 1.284" style="fill:none;stroke:#00a0e9;stroke-miterlimit:10;stroke-width:1.25px"/><path d="M829.173 322.461 281.377 650.263M270.612 625.861l558.56-303.4" style="fill:none;stroke:#00a0e9;stroke-miterlimit:10;stroke-width:5px"/><path d="m183.912 672.956 2.197-1.194" style="fill:none;stroke:#00a0e9;stroke-miterlimit:10;stroke-width:1.25px"/><path d="m188.333 670.554 78.97-42.895" style="fill:none;stroke:#00a0e9;stroke-dasharray:0 0 5.0629964 2.5314982;stroke-miterlimit:10;stroke-width:1.25px"/><path d="m268.416 627.055 2.196-1.194" style="fill:none;stroke:#00a0e9;stroke-miterlimit:10;stroke-width:1.25px"/><path d="M1269.273 220.274c1.675-.178 2.715-.486 3.12-.918.41-.434.616-1.567.616-3.398v-18.406c0-1.509-.23-2.495-.689-2.959-.454-.464-1.47-.75-3.047-.86v-.79h22.637l.146 6.081h-1.181c-.293-1.94-.835-3.171-1.64-3.686-.802-.518-2.384-.774-4.752-.774h-5.825c-.571 0-.938.095-1.094.288-.16.195-.239.576-.239 1.142v9.483h6.162c1.812 0 2.969-.266 3.467-.803s.898-1.626 1.201-3.265h.996v9.817h-.996c-.317-1.645-.728-2.736-1.226-3.269s-1.645-.798-3.442-.798h-6.162v9.297c0 1.555.24 2.549.713 2.983.478.432 1.518.71 3.125.835v.789h-11.89v-.789ZM1299.01 201.846v13.282c0 .94.131 1.694.395 2.263.513 1.05 1.455 1.577 2.822 1.577.943 0 1.86-.312 2.76-.935.512-.347 1.03-.823 1.557-1.433v-11.372c0-1.065-.205-1.763-.625-2.095-.41-.332-1.24-.532-2.49-.6v-.687h6.704v14.61c0 .94.17 1.587.507 1.94.342.352 1.055.509 2.149.467v.581c-.762.208-1.319.364-1.68.466-.361.105-.962.296-1.807.572-.356.124-1.147.422-2.363.893-.068 0-.112-.031-.127-.095a.957.957 0 0 1-.02-.217v-3.34c-.942 1.118-1.796 1.948-2.573 2.49-1.176.83-2.421 1.245-3.735 1.245-1.206 0-2.339-.43-3.403-1.289-1.08-.844-1.621-2.265-1.621-4.26v-10.784c0-1.098-.235-1.833-.703-2.204-.303-.232-.957-.398-1.954-.493v-.582h6.207ZM1313.868 220.38c1.274-.113 2.12-.338 2.534-.677s.62-1.062.62-2.168v-9.358c0-1.372-.127-2.349-.38-2.937-.26-.588-.723-.881-1.402-.881-.142 0-.322.017-.552.051s-.469.078-.713.134v-.683c.782-.279 1.592-.562 2.417-.852.83-.29 1.402-.498 1.72-.623a38.598 38.598 0 0 0 2.128-.894c.098 0 .156.037.176.105s.034.215.034.437v3.404c.884-1.233 1.743-2.195 2.568-2.886s1.68-1.038 2.569-1.038c.708 0 1.284.21 1.728.633s.664.952.664 1.587c0 .569-.166 1.045-.508 1.433a1.614 1.614 0 0 1-1.274.58c-.527 0-1.055-.24-1.587-.724-.532-.486-.952-.728-1.26-.728-.483 0-1.074.39-1.782 1.172s-1.06 1.587-1.06 2.417v9.36c0 1.19.279 2.017.83 2.48.557.465 1.475.682 2.764.655v.684h-10.234v-.684ZM1328.6 220.482c.98-.125 1.67-.371 2.065-.738s.59-1.186.59-2.458v-10.542c0-.879-.082-1.497-.248-1.853-.264-.523-.801-.781-1.617-.781-.127 0-.254.005-.385.02s-.293.033-.489.063v-.728c.567-.166 1.91-.596 4.029-1.286l1.948-.643c.098 0 .156.035.176.103a.915.915 0 0 1 .034.29v3.05c1.27-1.19 2.266-2.005 2.983-2.446 1.075-.68 2.193-1.019 3.355-1.019.937 0 1.792.271 2.568.809 1.49 1.052 2.236 2.927 2.236 5.625v9.692c0 .996.2 1.714.596 2.158.4.442 1.065.67 1.997.684v.58h-8.857v-.58c1.006-.14 1.714-.418 2.114-.84s.6-1.338.6-2.75v-8.861c0-1.19-.22-2.176-.659-2.957s-1.25-1.174-2.436-1.174c-.81 0-1.636.278-2.476.83-.468.32-1.074.845-1.816 1.577v11.621c0 .996.225 1.665.664 2.004.444.34 1.143.523 2.095.55v.58h-9.068v-.58ZM1353.648 211.912c1.275-.83 3.814-1.958 7.617-3.383v-1.763c0-1.411-.141-2.395-.415-2.95-.473-.925-1.445-1.388-2.93-1.388a4.05 4.05 0 0 0-2.011.54c-.635.373-.952.885-.952 1.535 0 .166.034.447.102.84.069.395.103.647.103.759 0 .774-.254 1.313-.767 1.616-.293.18-.634.271-1.035.271-.625 0-1.103-.205-1.435-.613s-.498-.86-.498-1.357c0-.97.6-1.983 1.796-3.042 1.197-1.057 2.95-1.587 5.26-1.587 2.685 0 4.506.872 5.458 2.615.513.954.767 2.346.767 4.172v8.32c0 .804.058 1.355.166 1.66.18.54.556.811 1.123.811.317 0 .58-.049.786-.146.21-.098.566-.332 1.08-.706v1.08c-.44.539-.919.98-1.432 1.327-.776.525-1.562.789-2.368.789-.937 0-1.62-.305-2.04-.913-.426-.608-.655-1.336-.694-2.178-1.055.913-1.953 1.59-2.7 2.031-1.26.747-2.456 1.123-3.59 1.123-1.19 0-2.22-.42-3.095-1.257-.869-.837-1.304-1.897-1.304-3.186 0-2.004 1.001-3.68 3.008-5.02Zm7.617-2.346c-1.591.525-2.905 1.106-3.945 1.743-1.992 1.23-2.988 2.63-2.988 4.192 0 1.26.415 2.185 1.245 2.781a3.027 3.027 0 0 0 1.807.581c.913 0 1.787-.256 2.627-.769.834-.51 1.254-1.162 1.254-1.948v-6.58ZM1382.98 202.828c1.254.889 1.88 1.865 1.88 2.927 0 .454-.162.88-.48 1.272s-.81.589-1.474.589c-.483 0-.908-.166-1.274-.499s-.635-.815-.801-1.452l-.25-.996c-.18-.733-.487-1.253-.932-1.555-.454-.293-1.06-.437-1.806-.437-1.578 0-2.906.688-3.995 2.067-1.084 1.38-1.626 3.21-1.626 5.496 0 2.092.596 3.97 1.792 5.632s2.813 2.493 4.849 2.493c1.436 0 2.715-.471 3.838-1.414.635-.54 1.352-1.4 2.158-2.578l.581.354c-.79 1.66-1.62 2.976-2.49 3.946-1.675 1.858-3.613 2.785-5.81 2.785-2.159 0-4.068-.852-5.728-2.553s-2.49-4.012-2.49-6.932c0-2.863.903-5.327 2.714-7.387 1.817-2.06 4.107-3.094 6.87-3.094 1.73 0 3.223.447 4.473 1.336ZM1401.666 203.621c1.465 1.348 2.202 3.262 2.202 5.738h-13.179c.137 3.203.864 5.534 2.178 7 1.313 1.462 2.871 2.194 4.668 2.194 1.455 0 2.68-.38 3.677-1.14s1.914-1.836 2.758-3.23l.728.249c-.571 1.76-1.63 3.389-3.188 4.885s-3.462 2.244-5.718 2.244c-2.598 0-4.61-.982-6.026-2.947-1.42-1.965-2.129-4.226-2.129-6.785 0-2.783.826-5.183 2.471-7.202s3.79-3.03 6.43-3.03c1.954 0 3.663.674 5.128 2.024Zm-9.942 1.587c-.44.747-.761 1.687-.952 2.823h8.755c-.151-1.385-.415-2.415-.786-3.091-.679-1.219-1.812-1.826-3.403-1.826-1.577 0-2.784.698-3.614 2.094ZM896.756 47.435c.718 1.91 1.563 3.43 2.53 4.565 1.684 1.978 3.774 2.97 6.279 2.97 1.352 0 2.524-.43 3.51-1.29.987-.857 1.48-2.053 1.48-3.589 0-1.384-.498-2.588-1.49-3.61-.649-.65-2.016-1.627-4.1-2.928l-3.624-2.26c-1.094-.692-1.963-1.392-2.612-2.095-1.206-1.343-1.807-2.823-1.807-4.444 0-2.143.713-3.928 2.139-5.351 1.426-1.426 3.31-2.139 5.664-2.139.967 0 2.134.24 3.496.715 1.362.479 2.144.716 2.334.716.527 0 .889-.122 1.089-.371s.356-.603.469-1.06h.869l.937 9.048h-1.015c-.694-2.725-1.807-4.63-3.335-5.708s-3.038-1.616-4.532-1.616c-1.162 0-2.177.341-3.042 1.025-.864.686-1.298 1.636-1.298 2.854 0 1.094.332 2.026.996 2.8.664.791 1.694 1.614 3.09 2.471l3.73 2.305c2.335 1.438 3.985 2.758 4.942 3.962.943 1.218 1.416 2.656 1.416 4.316 0 2.227-.84 4.09-2.52 5.584s-3.827 2.241-6.445 2.241c-1.313 0-2.685-.249-4.116-.747-1.435-.498-2.256-.747-2.46-.747-.499 0-.836.151-1.007.454-.175.305-.288.63-.341.977h-.938l-1.264-9.048h.976ZM918.485 55.404c1.48-.14 2.412-.391 2.802-.757.386-.366.581-1.36.581-2.979v-9.897c0-.901-.063-1.524-.19-1.87-.205-.567-.64-.85-1.304-.85a2.5 2.5 0 0 0-.449.042c-.142.026-.561.139-1.255.332v-.642l.894-.293c2.422-.787 4.106-1.382 5.063-1.783.386-.166.635-.249.747-.249.03.096.044.2.044.31v14.9c0 1.577.186 2.566.567 2.969.38.4 1.245.657 2.588.767v.58h-10.088v-.58Zm3.3-27.75c.415-.424.928-.639 1.534-.639.595 0 1.103.21 1.528.63.42.42.63.932.63 1.538 0 .593-.21 1.099-.63 1.518-.425.42-.933.63-1.528.63-.606 0-1.119-.21-1.534-.63s-.625-.925-.625-1.518c0-.59.21-1.101.625-1.528ZM930.33 55.404c1.29-.125 2.159-.384 2.618-.78.458-.392.683-1.164.683-2.311V32.037c0-.913-.073-1.543-.225-1.887-.278-.581-.84-.874-1.684-.874-.19 0-.405.022-.63.063-.23.042-.518.103-.864.186v-.684c1.87-.498 4.116-1.162 6.743-1.992.098 0 .156.041.18.124.02.083.03.264.03.54v24.883c0 1.201.21 1.98.62 2.334.42.351 1.274.576 2.578.674v.58H930.33v-.58ZM950.399 36.707v.642c-.718.083-1.226.193-1.524.332s-.449.442-.449.914c0 .222.034.432.093.632.063.2.17.495.322.884l4.36 10.424 3.692-9.201c.18-.457.351-.935.508-1.433.16-.498.239-.877.239-1.14 0-.54-.254-.928-.767-1.163-.302-.124-.717-.207-1.245-.249v-.642h5.894v.642c-.679.057-1.167.281-1.465.674-.298.396-.728 1.304-1.294 2.73l-6.001 14.941c-.107.264-.2.442-.269.54s-.166.146-.288.146c-.141 0-.258-.08-.351-.24a5.535 5.535 0 0 1-.313-.59l-6.352-15.19c-.513-1.233-1.06-2.07-1.636-2.513-.347-.249-.855-.415-1.519-.498v-.642h8.365ZM977.376 38.543c1.465 1.348 2.202 3.262 2.202 5.738H966.4c.136 3.203.864 5.534 2.177 7 1.314 1.461 2.871 2.194 4.668 2.194 1.455 0 2.681-.38 3.677-1.14s1.914-1.836 2.759-3.23l.727.249c-.57 1.76-1.63 3.388-3.188 4.885s-3.462 2.244-5.718 2.244c-2.597 0-4.61-.982-6.025-2.947-1.421-1.965-2.13-4.226-2.13-6.785 0-2.783.826-5.183 2.472-7.202s3.789-3.03 6.43-3.03c1.953 0 3.662.674 5.127 2.024Zm-9.941 1.587c-.44.747-.762 1.687-.952 2.822h8.755c-.152-1.384-.415-2.414-.787-3.09-.678-1.219-1.811-1.827-3.403-1.827-1.577 0-2.783.699-3.613 2.095ZM981.566 55.301c1.274-.112 2.119-.337 2.534-.676s.62-1.062.62-2.168v-9.358c0-1.372-.127-2.349-.38-2.937-.26-.588-.724-.881-1.402-.881-.142 0-.323.017-.552.05s-.469.079-.713.135v-.683c.781-.279 1.592-.562 2.417-.853.83-.29 1.401-.498 1.719-.622a38.598 38.598 0 0 0 2.129-.894c.097 0 .156.037.176.105s.034.215.034.437v3.404c.883-1.233 1.743-2.195 2.568-2.886s1.68-1.038 2.568-1.038c.708 0 1.285.21 1.729.633s.664.952.664 1.587c0 .568-.166 1.044-.508 1.433a1.614 1.614 0 0 1-1.274.58c-.528 0-1.055-.241-1.587-.724-.532-.486-.952-.728-1.26-.728-.483 0-1.074.39-1.782 1.172s-1.06 1.587-1.06 2.417v9.36c0 1.19.279 2.017.83 2.48.557.465 1.475.682 2.764.655v.684h-10.234V55.3ZM888.729 90.985v-.789c1.094-.122 1.914-.535 2.46-1.233.548-.7 1.485-2.612 2.808-5.74l8.858-20.856h.844L914.29 86.46c.703 1.596 1.27 2.583 1.69 2.961s1.133.637 2.129.774v.789h-10.81v-.789c1.244-.11 2.045-.244 2.401-.403.362-.158.542-.547.542-1.167 0-.205-.073-.571-.21-1.093a11.61 11.61 0 0 0-.58-1.653l-1.7-4.09h-11.201c-1.103 2.784-1.763 4.48-1.978 5.09-.214.613-.322 1.1-.322 1.458 0 .716.288 1.211.87 1.487.36.166 1.035.288 2.03.371v.789h-8.422Zm18.305-10.916-4.873-11.704-4.892 11.704h9.765ZM929.608 71.851v1.495h-4.234l-.039 11.953c0 1.052.088 1.848.269 2.385.332.957.981 1.433 1.953 1.433.498 0 .928-.117 1.294-.354.366-.234.786-.608 1.255-1.118l.542.454-.46.625c-.717.967-1.479 1.653-2.28 2.053-.805.4-1.577.603-2.324.603-1.636 0-2.739-.727-3.32-2.18-.317-.789-.479-1.882-.479-3.279V73.346h-2.26c-.069-.042-.122-.083-.157-.125s-.053-.098-.053-.166c0-.14.034-.247.092-.322.064-.076.26-.252.591-.528.957-.79 1.646-1.43 2.066-1.921.425-.49 1.416-1.787 2.978-3.89.18 0 .288.013.323.04.034.03.053.132.053.312v5.105h4.19ZM934.31 74.373c1.748-1.902 3.999-2.854 6.753-2.854 2.739 0 5.01.899 6.806 2.698s2.696 4.192 2.696 7.18c0 2.754-.87 5.147-2.613 7.18s-3.999 3.052-6.762 3.052c-2.657 0-4.908-.976-6.748-2.927s-2.76-4.4-2.76-7.346c0-2.754.875-5.08 2.628-6.983Zm3.31-.53c-1.386 1.26-2.075 3.43-2.075 6.517 0 2.463.557 4.758 1.67 6.89 1.118 2.13 2.666 3.195 4.649 3.195 1.552 0 2.749-.713 3.584-2.136.84-1.426 1.26-3.294 1.26-5.606a14.78 14.78 0 0 0-1.602-6.762c-1.065-2.12-2.613-3.177-4.634-3.177-1.099 0-2.046.36-2.852 1.08ZM952.537 90.445c1.08-.098 1.802-.276 2.159-.54.556-.4.83-1.203.83-2.407V76.771c0-1.026-.132-1.697-.406-2.014-.268-.318-.713-.476-1.338-.476-.288 0-.507.012-.654.039-.141.029-.312.078-.508.146v-.727l1.495-.498c.541-.179 1.425-.503 2.656-.975s1.885-.705 1.953-.705.107.034.122.102c.015.071.02.203.02.396v2.803c1.372-1.245 2.553-2.107 3.55-2.586a7.054 7.054 0 0 1 3.07-.715c1.426 0 2.56.483 3.404 1.452.444.525.81 1.238 1.099 2.137 1.025-1.035 1.918-1.804 2.68-2.303 1.314-.856 2.656-1.286 4.024-1.286 2.226 0 3.715.906 4.463 2.72.43 1.023.644 2.641.644 4.853v8.613c0 .982.215 1.65.654 2.002.435.354 1.221.586 2.354.696v.54h-9.36v-.581c1.206-.11 1.997-.352 2.377-.728.381-.371.572-1.133.572-2.28V78.45c0-1.342-.147-2.331-.44-2.968-.508-1.133-1.513-1.7-3.008-1.7-.898 0-1.792.296-2.675.892-.513.346-1.143.898-1.89 1.66v10.625c0 1.12.2 1.97.59 2.551.396.581 1.231.894 2.5.935v.54h-9.52v-.54c1.313-.166 2.148-.483 2.51-.954s.536-1.634.536-3.487v-5.798c0-2.127-.136-3.589-.41-4.392-.459-1.355-1.426-2.031-2.91-2.031-.84 0-1.67.229-2.49.693a7.88 7.88 0 0 0-2.159 1.816v11.353c0 1.05.186 1.777.552 2.178s1.167.607 2.398.622v.54h-9.444v-.54ZM987.132 84.447h.684c.317 1.577.747 2.788 1.284 3.632.967 1.55 2.378 2.325 4.243 2.325 1.035 0 1.855-.288 2.456-.862s.899-1.316.899-2.23c0-.58-.171-1.142-.518-1.681s-.957-1.065-1.826-1.577l-2.324-1.329c-1.7-.913-2.955-1.833-3.755-2.76-.806-.926-1.206-2.02-1.206-3.277 0-1.55.551-2.822 1.66-3.819s2.495-1.494 4.17-1.494c.732 0 1.538.137 2.417.415.879.276 1.377.415 1.484.415.25 0 .43-.036.542-.105a.893.893 0 0 0 .288-.332h.498l.147 5.789h-.645c-.273-1.34-.65-2.385-1.118-3.132-.86-1.385-2.1-2.076-3.716-2.076-.967 0-1.728.298-2.28.892a2.966 2.966 0 0 0-.83 2.097c0 1.272.952 2.407 2.861 3.403l2.74 1.472c2.944 1.607 4.418 3.474 4.418 5.606 0 1.63-.61 2.966-1.83 4.004-1.226 1.037-2.823 1.557-4.796 1.557-.83 0-1.767-.139-2.817-.415-1.05-.278-1.675-.415-1.865-.415a.609.609 0 0 0-.435.176 1.183 1.183 0 0 0-.293.425h-.537v-6.704ZM116.217 369.544c1.728-.154 2.846-.432 3.35-.832s.741-1.421.712-3.057l-.327-18.901c-.03-1.565-.303-2.566-.82-3.008-.523-.44-1.646-.686-3.374-.74l-.015-.788 12.573-.22.015.788c-1.729.115-2.847.4-3.35.86-.503.456-.742 1.47-.713 3.032l.327 18.901c.03 1.639.303 2.647.82 3.03.523.383 1.646.623 3.38.716l.01.788-12.574.22-.014-.789ZM131.192 369.815c.982-.141 1.665-.4 2.05-.774.392-.373.572-1.196.553-2.468l-.186-10.542c-.015-.876-.107-1.494-.283-1.848-.269-.515-.815-.767-1.63-.754a3.42 3.42 0 0 0-.382.029c-.132.014-.298.039-.488.07l-.015-.727c.567-.176 1.9-.627 4.004-1.355l1.939-.679c.097-.002.156.032.18.1.02.071.035.167.035.291l.053 3.05c1.25-1.212 2.232-2.044 2.94-2.5 1.064-.696 2.177-1.055 3.34-1.075a4.362 4.362 0 0 1 2.578.764c1.513 1.026 2.29 2.886 2.339 5.584l.166 9.69c.02.996.229 1.711.634 2.148.406.435 1.075.652 2.012.65l.01.58-8.863.154-.01-.58c1.007-.157 1.71-.447 2.1-.877.396-.43.581-1.35.557-2.761l-.156-8.86c-.02-1.19-.26-2.17-.713-2.945s-1.27-1.15-2.451-1.13c-.816.015-1.636.305-2.461.874-.464.327-1.06.862-1.792 1.609l.205 11.619c.014.996.249 1.66.698 1.99.45.331 1.152.502 2.105.515l.01.58-9.068.16-.01-.582ZM152.789 369.82c1.133-.17 1.87-.464 2.217-.879.346-.412.507-1.382.478-2.903l-.347-19.919c-.014-.774-.122-1.343-.332-1.707-.205-.363-.698-.537-1.47-.524a3.413 3.413 0 0 0-.449.039c-.141.024-.302.05-.483.083l-.015-.747c.606-.19 1.353-.423 2.242-.694s1.504-.466 1.845-.583l1.983-.657.044.144.224 12.74c.85-1.012 1.612-1.756 2.285-2.24 1.202-.852 2.51-1.289 3.921-1.313 2.237-.04 3.785.874 4.634 2.742.46.988.703 2.292.733 3.908l.146 8.467c.024 1.467.21 2.417.557 2.854s1.05.715 2.104.835l.01.581-8.984.156-.01-.58c1.196-.186 1.968-.484 2.305-.892.341-.405.498-1.37.468-2.893l-.146-8.403c-.02-1.34-.264-2.422-.728-3.245s-1.318-1.223-2.563-1.2c-1.08.019-2.12.424-3.115 1.215-.997.793-1.495 1.306-1.49 1.543l.18 10.23c.025 1.547.226 2.512.592 2.892.366.384 1.137.645 2.314.791l.01.581-9.15.16-.01-.582ZM177.828 353.734c1.719-1.931 3.95-2.923 6.704-2.971 2.74-.047 5.024.812 6.855 2.58 1.827 1.765 2.769 4.143 2.823 7.131.044 2.752-.782 5.162-2.49 7.225s-3.946 3.12-6.714 3.168c-2.652.047-4.917-.89-6.792-2.807-1.875-1.92-2.837-4.35-2.886-7.297-.049-2.754.786-5.096 2.5-7.03Zm3.306-.586c-1.368 1.282-2.022 3.467-1.968 6.55.044 2.463.644 4.749 1.797 6.86s2.72 3.15 4.702 3.116c1.553-.03 2.734-.762 3.545-2.2.815-1.44 1.2-3.315 1.162-5.625-.044-2.393-.615-4.639-1.719-6.736s-2.666-3.13-4.692-3.093a4.122 4.122 0 0 0-2.827 1.128ZM197.076 369.96c1.079-.115 1.797-.308 2.148-.577.547-.41.81-1.218.791-2.422l-.19-10.727c-.015-1.023-.161-1.692-.44-2.005-.273-.315-.722-.466-1.347-.454a3.842 3.842 0 0 0-.65.051 3.697 3.697 0 0 0-.507.157l-.01-.728 1.484-.525c.537-.188 1.416-.53 2.637-1.02 1.226-.49 1.87-.738 1.938-.74.069 0 .113.034.127.103s.025.2.03.393l.049 2.8c1.347-1.267 2.514-2.151 3.5-2.644a6.994 6.994 0 0 1 3.057-.77c1.426-.024 2.568.44 3.428 1.392.454.52.835 1.226 1.138 2.12 1.005-1.055 1.884-1.839 2.636-2.351 1.3-.88 2.637-1.333 4.004-1.355 2.227-.04 3.73.84 4.507 2.639.45 1.015.693 2.632.728 4.843l.15 8.611c.02.982.25 1.646.69 1.992.444.345 1.23.562 2.368.652l.01.54-9.356.163-.015-.58c1.206-.132 1.992-.386 2.363-.767.376-.381.552-1.145.533-2.293l-.157-8.943c-.024-1.34-.185-2.329-.488-2.959-.532-1.125-1.543-1.674-3.037-1.65-.898.017-1.787.33-2.661.94-.508.354-1.123.92-1.86 1.692l.185 10.625c.02 1.12.235 1.968.64 2.541.4.574 1.24.872 2.514.89l.01.539-9.526.168-.01-.54c1.314-.19 2.144-.522 2.495-.998s.513-1.643.479-3.496l-.103-5.798c-.034-2.127-.2-3.587-.488-4.383-.484-1.347-1.46-2.009-2.94-1.982-.844.014-1.67.261-2.48.74a7.812 7.812 0 0 0-2.124 1.853l.195 11.347c.02 1.052.215 1.775.591 2.17.371.396 1.177.589 2.407.582l.01.54-9.443.163-.01-.54ZM233.61 353.734c1.718-1.931 3.95-2.923 6.703-2.971 2.74-.047 5.025.812 6.856 2.58 1.826 1.765 2.768 4.143 2.822 7.131.044 2.752-.781 5.162-2.49 7.225s-3.946 3.12-6.714 3.168c-2.651.047-4.917-.89-6.792-2.807-1.875-1.92-2.837-4.35-2.886-7.297-.049-2.754.786-5.096 2.5-7.03Zm3.305-.586c-1.367 1.282-2.022 3.467-1.968 6.55.044 2.463.645 4.749 1.797 6.86s2.72 3.15 4.702 3.116c1.553-.03 2.734-.762 3.545-2.2.815-1.44 1.201-3.315 1.162-5.625-.044-2.393-.615-4.639-1.719-6.736s-2.666-3.13-4.692-3.093a4.122 4.122 0 0 0-2.827 1.128ZM255.953 361.148c-.713-1.052-1.084-2.243-1.109-3.572-.029-1.618.586-3.164 1.851-4.638 1.26-1.475 3.066-2.234 5.415-2.276 1.01-.017 2.129.203 3.355.66 1.225.454 2.397.673 3.52.654a46.65 46.65 0 0 0 1.318-.054c.586-.032 1.011-.049 1.275-.054l.249-.004.03 1.68-3.59.063c.26.576.46 1.079.606 1.504.249.798.38 1.557.39 2.277.03 1.575-.6 3.038-1.884 4.38-1.285 1.346-3.033 2.037-5.244 2.073-.347.007-.967-.044-1.87-.154-.401.008-.928.357-1.583 1.045-.649.691-.971 1.25-.966 1.677.01.445.498.76 1.474.95a9.96 9.96 0 0 0 2.124.171c3.56-.06 5.977.098 7.261.476 2.104.613 3.174 1.992 3.213 4.136.034 2.185-1.152 3.95-3.574 5.293-2.417 1.343-4.873 2.036-7.364 2.08-2.265.039-4.072-.39-5.415-1.287-1.347-.896-2.026-1.85-2.046-2.859-.01-.498.162-.988.503-1.472s1.02-1.206 2.041-2.163l1.343-1.247.244-.254c-.64-.24-1.118-.471-1.435-.701-.557-.42-.84-.906-.85-1.46-.01-.513.22-1.079.689-1.704.463-.623 1.464-1.64 3.007-3.052-1.27-.393-2.26-1.116-2.978-2.168Zm2.47 15.398c1.314.42 2.818.615 4.503.586 2.3-.039 4.16-.471 5.58-1.291 1.426-.82 2.13-1.812 2.11-2.974-.015-.925-.61-1.53-1.777-1.816-.728-.166-2.095-.247-4.102-.24-.513-.005-1.055-.012-1.626-.022a78.968 78.968 0 0 1-1.558-.046c-.307-.007-.8-.056-1.479-.14a26.645 26.645 0 0 1-1.523-.224c-.166.005-.562.447-1.187 1.33-.645.897-.957 1.717-.942 2.464.02 1.162.688 1.953 2.002 2.373Zm6.338-14.367c.82-.68 1.216-1.841 1.187-3.49-.024-1.313-.386-2.787-1.084-4.42-.698-1.636-1.831-2.44-3.394-2.413-1.357.025-2.28.684-2.768 1.98-.25.681-.366 1.521-.352 2.517.03 1.687.464 3.196 1.304 4.522.84 1.328 1.91 1.98 3.213 1.958.757-.012 1.392-.232 1.894-.654ZM288.726 352.689c1.49 1.323 2.256 3.222 2.3 5.698l-13.174.23c.196 3.2.962 5.52 2.3 6.96 1.338 1.438 2.91 2.144 4.707 2.112 1.45-.025 2.671-.427 3.652-1.204s1.885-1.868 2.706-3.276l.727.234c-.537 1.77-1.567 3.418-3.1 4.942-1.529 1.523-3.423 2.304-5.674 2.343-2.603.044-4.63-.903-6.08-2.841-1.454-1.939-2.202-4.19-2.246-6.749-.048-2.78.733-5.192 2.344-7.243 1.612-2.046 3.736-3.093 6.377-3.14 1.953-.034 3.672.61 5.161 1.934Zm-9.912 1.76c-.43.754-.727 1.702-.903 2.837l8.755-.151c-.176-1.382-.454-2.408-.84-3.079-.698-1.204-1.846-1.794-3.438-1.765-1.577.027-2.768.747-3.574 2.158ZM294.532 369.815c.981-.141 1.665-.4 2.05-.774.391-.373.572-1.196.553-2.468l-.186-10.542c-.015-.876-.107-1.494-.283-1.848-.269-.515-.816-.767-1.631-.754a3.42 3.42 0 0 0-.38.029c-.133.014-.299.039-.49.07l-.014-.727c.567-.176 1.9-.627 4.004-1.355l1.939-.679c.097-.002.156.032.18.1.02.071.034.167.034.291l.054 3.05c1.25-1.212 2.232-2.044 2.94-2.5 1.064-.696 2.177-1.055 3.34-1.075a4.362 4.362 0 0 1 2.577.764c1.514 1.026 2.29 2.886 2.34 5.584l.165 9.69c.02.996.23 1.711.635 2.148.405.435 1.074.652 2.012.65l.01.58-8.863.154-.01-.58c1.006-.157 1.71-.447 2.1-.877.396-.43.581-1.35.557-2.761l-.156-8.86c-.02-1.19-.26-2.17-.713-2.945s-1.27-1.15-2.452-1.13c-.815.015-1.635.305-2.46.874-.464.327-1.06.862-1.792 1.609l.205 11.619c.014.996.249 1.66.698 1.99.45.331 1.152.502 2.104.515l.01.58-9.067.16-.01-.582ZM330.318 352.689c1.49 1.323 2.256 3.222 2.3 5.698l-13.174.23c.195 3.2.962 5.52 2.3 6.96 1.338 1.438 2.91 2.144 4.707 2.112 1.45-.025 2.67-.427 3.652-1.204s1.885-1.868 2.705-3.276l.728.234c-.537 1.77-1.567 3.418-3.1 4.942-1.529 1.523-3.424 2.304-5.675 2.343-2.602.044-4.628-.903-6.079-2.841-1.455-1.939-2.202-4.19-2.246-6.749-.049-2.78.733-5.192 2.344-7.243 1.611-2.046 3.735-3.093 6.377-3.14 1.953-.034 3.672.61 5.161 1.934Zm-9.912 1.76c-.43.754-.728 1.702-.903 2.837l8.755-.151c-.176-1.382-.455-2.408-.84-3.079-.699-1.204-1.846-1.794-3.438-1.765-1.577.027-2.768.747-3.574 2.158ZM338.775 353.734c1.719-1.931 3.95-2.923 6.704-2.971 2.74-.047 5.025.812 6.856 2.58 1.826 1.765 2.768 4.143 2.822 7.131.044 2.752-.781 5.162-2.49 7.225s-3.946 3.12-6.714 3.168c-2.651.047-4.917-.89-6.792-2.807-1.875-1.92-2.837-4.35-2.886-7.297-.049-2.754.786-5.096 2.5-7.03Zm3.306-.586c-1.367 1.282-2.022 3.467-1.968 6.55.044 2.463.645 4.749 1.797 6.86s2.72 3.15 4.702 3.116c1.553-.03 2.734-.762 3.545-2.2.815-1.44 1.201-3.315 1.162-5.625-.044-2.393-.615-4.639-1.719-6.736s-2.666-3.13-4.692-3.093a4.122 4.122 0 0 0-2.827 1.128ZM363.594 351.08l.235 13.279c.015.942.161 1.694.434 2.256.528 1.042 1.48 1.55 2.847 1.528.942-.017 1.856-.344 2.744-.984.508-.354 1.016-.84 1.533-1.458l-.2-11.37c-.02-1.066-.239-1.76-.659-2.084s-1.255-.51-2.5-.56l-.015-.683 6.705-.117.253 14.607c.02.94.2 1.584.542 1.931.347.347 1.065.488 2.159.43l.01.58c-.757.22-1.314.387-1.675.496-.357.11-.957.31-1.792.601-.362.132-1.143.444-2.354.935-.068 0-.107-.03-.122-.093a.936.936 0 0 1-.024-.217l-.059-3.34c-.923 1.138-1.768 1.983-2.53 2.534-1.161.852-2.402 1.29-3.715 1.311-1.201.022-2.344-.388-3.423-1.228-1.094-.827-1.66-2.236-1.694-4.23l-.19-10.784c-.015-1.096-.264-1.829-.743-2.19-.308-.227-.962-.381-1.958-.462l-.01-.578 6.201-.11ZM381.446 363.792l.689-.012c.341 1.572.79 2.776 1.342 3.608.996 1.534 2.422 2.283 4.287 2.251 1.036-.02 1.846-.32 2.437-.903.59-.586.879-1.335.864-2.248a3.102 3.102 0 0 0-.552-1.67c-.356-.535-.971-1.05-1.85-1.546l-2.349-1.286c-1.714-.884-2.983-1.783-3.803-2.696s-1.24-1.997-1.26-3.256c-.03-1.55.503-2.833 1.592-3.848s2.47-1.536 4.145-1.565c.732-.015 1.543.11 2.422.371.884.261 1.382.39 1.494.39.25-.004.425-.04.537-.114a.86.86 0 0 0 .283-.337l.498-.007.25 5.786-.645.01c-.303-1.336-.693-2.374-1.177-3.113-.879-1.367-2.129-2.039-3.75-2.01-.967.018-1.723.328-2.265.933a2.997 2.997 0 0 0-.796 2.11c.024 1.271.996 2.39 2.924 3.352l2.764 1.425c2.974 1.553 4.483 3.396 4.517 5.525.029 1.633-.557 2.979-1.763 4.036-1.201 1.06-2.793 1.606-4.766 1.64-.83.015-1.772-.107-2.827-.366s-1.675-.385-1.87-.38c-.166.002-.307.063-.43.183s-.22.263-.283.43l-.542.009-.117-6.702ZM173.35 414.757c1.753-.21 2.876-.628 3.36-1.253.488-.622.713-2.055.674-4.294l-.303-17.249c-.025-1.535-.283-2.53-.777-2.983s-1.596-.708-3.315-.762l-.015-.788 8.38-.147 10.126 20.996 9.156-21.333 8.442-.146.015.788c-1.573.14-2.588.442-3.033.913-.449.472-.659 1.46-.634 2.967l.327 18.886c.029 1.55.273 2.537.737 2.964s1.49.696 3.066.808l.015.789-11.89.207-.014-.788c1.714-.169 2.778-.496 3.188-.98.415-.483.606-1.625.576-3.422l-.332-19.072-10.463 24.384-.582.01-11.098-23.012.293 16.938c.044 2.322.41 3.828 1.098 4.522.45.449 1.446.742 2.984.88l.014.79-9.98.175-.015-.788ZM215.816 406.156c1.26-.852 3.78-2.022 7.559-3.514l-.034-1.765c-.025-1.41-.181-2.39-.464-2.94-.489-.917-1.47-1.364-2.95-1.337a4.055 4.055 0 0 0-2.006.574c-.63.385-.938.903-.928 1.552.005.166.044.447.122.84.073.39.112.645.117.755.01.774-.234 1.318-.742 1.63-.288.186-.63.281-1.03.289-.625.012-1.104-.184-1.446-.586a2.121 2.121 0 0 1-.522-1.35c-.015-.97.566-1.993 1.743-3.072s2.925-1.638 5.234-1.68c2.681-.046 4.517.794 5.503 2.52.528.945.806 2.332.84 4.158l.142 8.32c.015.8.083 1.355.195 1.655.19.537.571.801 1.138.791.317-.007.58-.058.786-.158s.562-.342 1.064-.725l.02 1.079a6.836 6.836 0 0 1-1.406 1.352c-.767.54-1.553.816-2.354.83-.942.017-1.626-.276-2.06-.876-.435-.603-.679-1.323-.733-2.168-1.035.933-1.924 1.626-2.66 2.08-1.246.769-2.437 1.165-3.57 1.184-1.192.02-2.227-.38-3.115-1.201-.884-.823-1.338-1.875-1.363-3.162-.034-2.007.938-3.698 2.92-5.075Zm7.573-2.476c-1.582.552-2.885 1.157-3.91 1.812-1.968 1.264-2.94 2.68-2.916 4.243.025 1.257.454 2.177 1.294 2.758a3.02 3.02 0 0 0 1.817.55c.913-.017 1.782-.288 2.612-.813.825-.528 1.235-1.184 1.22-1.973l-.117-6.577ZM234.781 406.148c-.713-1.052-1.084-2.243-1.108-3.572-.03-1.618.586-3.164 1.85-4.638 1.26-1.475 3.067-2.234 5.415-2.276 1.011-.017 2.13.203 3.355.66 1.225.454 2.397.673 3.52.654a46.65 46.65 0 0 0 1.319-.054c.586-.032 1.01-.049 1.274-.054l.249-.004.03 1.68-3.59.063c.26.576.46 1.079.606 1.504.249.798.38 1.557.39 2.277.03 1.575-.6 3.038-1.884 4.38-1.284 1.346-3.032 2.037-5.244 2.073-.347.007-.967-.044-1.87-.154-.4.008-.928.357-1.582 1.045-.65.691-.972 1.25-.967 1.677.01.445.498.76 1.474.95a9.96 9.96 0 0 0 2.124.171c3.56-.06 5.977.098 7.261.476 2.105.613 3.174 1.992 3.213 4.136.034 2.185-1.152 3.95-3.574 5.293-2.417 1.343-4.873 2.036-7.364 2.08-2.265.039-4.072-.39-5.415-1.287-1.347-.896-2.026-1.85-2.045-2.859-.01-.498.16-.988.502-1.472s1.021-1.206 2.041-2.163l1.343-1.247.244-.254c-.64-.24-1.118-.471-1.435-.701-.557-.42-.84-.906-.85-1.46-.01-.513.22-1.079.689-1.704.464-.623 1.465-1.64 3.008-3.052-1.27-.393-2.261-1.116-2.979-2.168Zm2.47 15.398c1.314.42 2.818.615 4.503.586 2.3-.039 4.16-.471 5.58-1.291 1.427-.82 2.13-1.812 2.11-2.974-.015-.925-.61-1.53-1.777-1.816-.728-.166-2.095-.247-4.102-.24-.513-.005-1.054-.012-1.626-.022a78.968 78.968 0 0 1-1.557-.046c-.308-.007-.801-.056-1.48-.14a26.645 26.645 0 0 1-1.523-.224c-.166.005-.562.447-1.187 1.33-.644.897-.957 1.717-.942 2.464.02 1.162.688 1.953 2.002 2.373Zm6.339-14.367c.82-.68 1.215-1.841 1.186-3.49-.024-1.313-.386-2.787-1.084-4.42-.698-1.636-1.83-2.44-3.393-2.413-1.358.025-2.28.684-2.769 1.98-.249.681-.366 1.521-.352 2.517.03 1.687.464 3.196 1.304 4.522.84 1.328 1.91 1.98 3.213 1.958.757-.012 1.392-.232 1.895-.654ZM253.756 414.815c.981-.141 1.665-.4 2.05-.774.391-.373.572-1.196.552-2.468l-.185-10.542c-.015-.876-.108-1.494-.284-1.848-.268-.515-.815-.767-1.63-.754a3.42 3.42 0 0 0-.381.029c-.132.014-.298.039-.489.07l-.014-.727c.566-.176 1.9-.627 4.004-1.355l1.938-.679c.098-.002.156.032.18.1.02.071.035.167.035.291l.054 3.05c1.25-1.212 2.231-2.044 2.94-2.5 1.064-.696 2.177-1.055 3.339-1.075a4.362 4.362 0 0 1 2.578.764c1.514 1.026 2.29 2.886 2.339 5.584l.166 9.69c.02.996.23 1.711.635 2.148.405.435 1.074.652 2.011.65l.01.58-8.862.154-.01-.58c1.006-.157 1.71-.447 2.1-.877.395-.43.58-1.35.556-2.761l-.156-8.86c-.02-1.19-.259-2.17-.713-2.945s-1.27-1.15-2.45-1.13c-.816.015-1.637.305-2.462.874-.464.327-1.06.862-1.792 1.609l.205 11.619c.015.996.25 1.66.699 1.99.449.331 1.152.502 2.104.515l.01.58-9.068.16-.01-.582ZM289.547 397.689c1.489 1.323 2.255 3.222 2.3 5.698l-13.174.23c.195 3.2.962 5.52 2.3 6.96 1.337 1.438 2.91 2.144 4.706 2.112 1.45-.025 2.671-.427 3.653-1.204s1.885-1.868 2.705-3.276l.727.234c-.537 1.77-1.567 3.418-3.1 4.942-1.528 1.523-3.423 2.304-5.674 2.343-2.603.044-4.629-.903-6.08-2.841-1.454-1.939-2.201-4.19-2.245-6.749-.049-2.78.732-5.192 2.344-7.243 1.61-2.046 3.735-3.093 6.377-3.14 1.953-.034 3.671.61 5.16 1.934Zm-9.912 1.76c-.43.754-.728 1.702-.904 2.837l8.755-.151c-.176-1.382-.454-2.408-.84-3.079-.698-1.204-1.845-1.794-3.437-1.765-1.577.027-2.769.747-3.574 2.158ZM305.07 396.007l.024 1.494-4.234.073.166 11.953c.02 1.05.122 1.843.313 2.38.346.95 1.005 1.414 1.977 1.4.498-.01.928-.135 1.29-.377s.77-.622 1.235-1.142l.546.447-.444.63c-.703.981-1.45 1.68-2.246 2.094s-1.567.63-2.314.642c-1.631.03-2.754-.678-3.36-2.121-.332-.781-.508-1.873-.532-3.27l-.22-12.572-2.26.039a.657.657 0 0 1-.162-.122.25.25 0 0 1-.053-.167c0-.136.029-.244.088-.322.063-.078.253-.256.58-.54.943-.805 1.622-1.457 2.032-1.955.415-.498 1.387-1.811 2.91-3.943.18-.002.288.01.322.037s.054.132.059.31l.088 5.105 4.194-.073ZM307.955 414.73c1.48-.164 2.407-.432 2.788-.806s.557-1.37.527-2.988l-.17-9.898c-.015-.898-.089-1.518-.22-1.862-.22-.564-.66-.84-1.324-.828a2.252 2.252 0 0 0-.444.049c-.146.03-.561.149-1.25.354l-.01-.645.884-.305c2.407-.83 4.087-1.455 5.034-1.872.386-.174.63-.262.742-.262.03.096.044.198.05.31l.258 14.898c.024 1.577.234 2.56.62 2.956.39.396 1.255.635 2.598.723l.01.581-10.083.176-.01-.581Zm2.812-27.8c.41-.435.918-.657 1.529-.67.59-.01 1.103.191 1.533.604s.65.922.659 1.528c.01.59-.19 1.101-.605 1.528s-.918.647-1.514.657c-.61.01-1.123-.19-1.548-.603a2.09 2.09 0 0 1-.65-1.506 2.12 2.12 0 0 1 .596-1.538ZM334.395 396.893c1.27.867 1.914 1.83 1.934 2.893.005.454-.147.881-.46 1.28-.307.397-.795.602-1.46.614a1.85 1.85 0 0 1-1.283-.476c-.376-.324-.65-.805-.825-1.438l-.269-.99c-.19-.73-.513-1.246-.962-1.541-.459-.284-1.064-.418-1.811-.406-1.578.03-2.896.74-3.956 2.14-1.064 1.396-1.572 3.236-1.533 5.522.034 2.092.664 3.957 1.89 5.6 1.226 1.64 2.856 2.444 4.892 2.407 1.436-.024 2.706-.517 3.814-1.48.625-.55 1.328-1.422 2.11-2.616l.59.344c-.762 1.675-1.567 3.005-2.422 3.99-1.64 1.884-3.564 2.846-5.761 2.885-2.159.037-4.082-.781-5.772-2.454s-2.559-3.967-2.612-6.884c-.049-2.864.815-5.342 2.588-7.435 1.777-2.092 4.048-3.164 6.816-3.212 1.729-.03 3.228.388 4.492 1.257ZM211.021 459.632c1.67-.21 2.705-.532 3.106-.974s.586-1.577.551-3.408l-.317-18.404c-.03-1.508-.273-2.49-.737-2.944-.464-.456-1.49-.725-3.067-.808l-.014-.789 22.636-.395.254 6.077-1.181.022c-.327-1.939-.894-3.157-1.704-3.66-.816-.5-2.403-.732-4.766-.691l-5.825.103c-.571.01-.933.112-1.09.307-.155.198-.229.579-.219 1.148l.166 9.482 6.162-.11c1.812-.032 2.964-.32 3.452-.864.489-.547.87-1.64 1.143-3.284l.996-.017.171 9.815-.996.017c-.347-1.64-.772-2.722-1.28-3.247-.507-.523-1.66-.77-3.456-.738l-6.162.108.16 9.294c.03 1.555.284 2.547.767 2.971.489.425 1.533.684 3.14.782l.015.788-11.89.208-.015-.789ZM235.753 459.73c1.48-.164 2.407-.432 2.788-.806s.556-1.37.527-2.988l-.17-9.898c-.015-.898-.089-1.518-.22-1.862-.22-.564-.66-.84-1.324-.828a2.252 2.252 0 0 0-.444.049c-.147.03-.562.149-1.25.354l-.01-.645.884-.305c2.407-.83 4.087-1.455 5.034-1.872.386-.174.63-.262.742-.262.03.096.044.198.05.31l.258 14.898c.024 1.577.234 2.56.62 2.956.39.396 1.255.635 2.598.723l.01.581-10.084.176-.01-.581Zm2.812-27.8c.41-.435.918-.657 1.529-.67.59-.01 1.103.191 1.533.604s.65.922.659 1.528c.01.59-.19 1.101-.606 1.528s-.918.647-1.513.657c-.61.01-1.123-.19-1.548-.603a2.09 2.09 0 0 1-.65-1.506 2.12 2.12 0 0 1 .596-1.538ZM262.037 442.689c1.49 1.323 2.256 3.222 2.3 5.698l-13.174.23c.195 3.2.962 5.52 2.3 6.96 1.338 1.438 2.91 2.144 4.707 2.112 1.45-.025 2.67-.427 3.652-1.204s1.885-1.868 2.705-3.276l.728.234c-.537 1.77-1.568 3.418-3.1 4.942-1.53 1.523-3.424 2.304-5.675 2.343-2.602.044-4.629-.903-6.079-2.841-1.455-1.939-2.202-4.19-2.246-6.749-.049-2.78.732-5.192 2.344-7.243 1.611-2.046 3.735-3.093 6.377-3.14 1.953-.034 3.672.61 5.16 1.934Zm-9.912 1.76c-.43.754-.728 1.702-.904 2.837l8.755-.151c-.175-1.382-.454-2.408-.84-3.079-.698-1.204-1.845-1.794-3.437-1.765-1.577.027-2.769.747-3.574 2.158ZM267.94 459.73c1.284-.147 2.154-.423 2.603-.825.449-.4.664-1.177.644-2.325l-.351-20.27c-.02-.914-.108-1.541-.264-1.885-.288-.577-.854-.857-1.694-.843a3.425 3.425 0 0 0-.635.074c-.225.046-.513.112-.855.202l-.014-.686c1.86-.53 4.096-1.233 6.709-2.11.097-.002.156.04.18.123.02.083.035.261.04.54l.434 24.877c.02 1.202.244 1.978.664 2.322.42.347 1.28.557 2.583.63l.01.581-10.044.176-.01-.581ZM292.144 441.241c.557.28 1.094.671 1.617 1.174l-.113-6.596c-.014-.845-.122-1.424-.312-1.739s-.64-.466-1.348-.454a3.583 3.583 0 0 0-.435.03l-.83.097-.01-.686 1.695-.466c.62-.176 1.24-.359 1.855-.55.62-.19 1.163-.373 1.631-.549.22-.07.586-.21 1.094-.412l.127.039-.005 2.18v2.439c0 .837.01 1.662.025 2.478l.253 16.953c.015.9.137 1.528.367 1.882.224.357.815.525 1.772.51.151-.002.303-.01.454-.019s.303-.03.454-.059l.015.684-2.993 1.089-3.233 1.282-.151-.183-.044-2.554c-.762.86-1.42 1.472-1.982 1.84-.996.64-2.159.972-3.487.997-2.353.041-4.272-.835-5.766-2.63-1.49-1.794-2.256-3.886-2.3-6.279-.049-3.003.776-5.593 2.49-7.776 1.714-2.18 3.833-3.293 6.367-3.337a5.918 5.918 0 0 1 2.793.615Zm.884 16.133c.65-.65.972-1.257.962-1.824l-.156-8.901c-.03-1.797-.532-3.06-1.509-3.782-.972-.723-1.914-1.077-2.827-1.062-1.743.032-3.086.825-4.029 2.385s-1.391 3.467-1.352 5.72c.039 2.23.586 4.205 1.65 5.928 1.06 1.726 2.613 2.571 4.663 2.534 1.08-.02 1.944-.351 2.598-.998ZM4.085 841.09c2.573-2.55 5.767-3.858 9.585-3.924 3.833-.066 7.075 1.136 9.736 3.609 2.881 2.675 4.36 6.281 4.444 10.818.078 4.607-1.323 8.298-4.21 11.074-2.582 2.48-5.736 3.752-9.457 3.818-3.985.069-7.315-1.22-9.99-3.872-2.72-2.707-4.117-6.218-4.19-10.535-.078-4.536 1.284-8.198 4.082-10.988Zm3.545 20.766c1.792 2.107 3.975 3.137 6.533 3.094 2.51-.044 4.634-1.124 6.377-3.235 1.743-2.115 2.574-5.46 2.495-10.037-.083-4.634-1.04-7.966-2.876-9.995-1.836-2.031-3.989-3.025-6.455-2.981-2.544.044-4.682 1.15-6.41 3.318s-2.554 5.493-2.476 9.975c.078 4.468 1.015 7.754 2.812 9.861ZM30.096 839.671l-.01-.705a39.388 39.388 0 0 0 4.248-1.28c1.255-.464 1.929-.698 2.027-.698a.72.72 0 0 1 .044.247l.224 12.636c.347-.671.874-1.308 1.582-1.916 1.25-1.06 2.705-1.604 4.365-1.633 2.027-.035 3.775.793 5.245 2.483 1.464 1.689 2.221 3.903 2.27 6.643.049 2.932-.84 5.459-2.67 7.58s-4.268 3.208-7.31 3.262c-1.538.027-3.047-.252-4.541-.833-1.49-.583-2.242-1.179-2.251-1.787l-.381-21.933c-.015-.801-.137-1.37-.362-1.704-.23-.337-.742-.496-1.547-.484l-.933.122Zm8.335 24.751c.957.293 1.792.435 2.51.423 1.928-.035 3.344-.784 4.248-2.251s1.338-3.23 1.303-5.289c-.039-2.058-.502-3.952-1.4-5.686-.9-1.73-2.32-2.58-4.264-2.548-.976.017-1.928.334-2.856.952s-1.382 1.389-1.362 2.314l.18 10.57c.137.714.684 1.22 1.64 1.515ZM54.51 859.449l.688-.012c.342 1.572.792 2.776 1.343 3.608.996 1.533 2.422 2.283 4.287 2.251 1.036-.02 1.846-.32 2.437-.903.59-.586.879-1.336.864-2.249a3.102 3.102 0 0 0-.552-1.67c-.356-.534-.971-1.05-1.85-1.545l-2.349-1.287c-1.714-.883-2.983-1.782-3.804-2.695s-1.24-1.997-1.26-3.257c-.029-1.55.504-2.832 1.592-3.847s2.471-1.536 4.146-1.565c.732-.015 1.543.11 2.422.37.884.262 1.382.391 1.494.391.249-.005.425-.041.537-.114a.86.86 0 0 0 .283-.337l.498-.008.25 5.787-.645.01c-.303-1.336-.693-2.374-1.177-3.114-.879-1.367-2.129-2.038-3.75-2.009-.967.017-1.724.327-2.266.933a2.997 2.997 0 0 0-.795 2.11c.024 1.271.996 2.39 2.924 3.351l2.764 1.426c2.974 1.553 4.482 3.396 4.517 5.525.029 1.633-.557 2.978-1.763 4.036-1.201 1.06-2.793 1.606-4.766 1.64-.83.015-1.772-.107-2.827-.366s-1.675-.386-1.87-.38c-.166.002-.308.063-.43.182s-.22.264-.283.43l-.542.01-.117-6.702ZM84.232 848.346c1.489 1.323 2.256 3.222 2.3 5.698l-13.174.23c.195 3.2.962 5.52 2.3 6.96 1.337 1.438 2.91 2.143 4.707 2.112 1.45-.025 2.67-.428 3.652-1.204s1.885-1.868 2.705-3.276l.727.234c-.537 1.77-1.567 3.418-3.1 4.941-1.528 1.524-3.423 2.305-5.674 2.344-2.602.044-4.629-.903-6.079-2.842-1.455-1.938-2.202-4.19-2.246-6.748-.049-2.78.732-5.193 2.344-7.243 1.61-2.046 3.735-3.094 6.377-3.14 1.953-.034 3.671.61 5.16 1.934Zm-9.912 1.76c-.43.754-.728 1.701-.904 2.837l8.755-.152c-.176-1.382-.454-2.407-.84-3.078-.698-1.204-1.845-1.795-3.437-1.765-1.577.026-2.769.747-3.574 2.158ZM89.456 865.313c1.27-.132 2.11-.37 2.52-.717s.6-1.072.586-2.18l-.166-9.359c-.025-1.367-.171-2.343-.435-2.927-.268-.583-.737-.869-1.416-.86a3.795 3.795 0 0 0-.547.064c-.23.037-.468.088-.717.147l-.01-.686c.781-.288 1.582-.586 2.407-.891.82-.306 1.387-.523 1.704-.652a37.96 37.96 0 0 0 2.114-.93c.098-.003.157.031.176.1.025.068.034.215.04.434l.058 3.404c.869-1.246 1.709-2.222 2.52-2.93.815-.706 1.664-1.067 2.553-1.082.708-.012 1.284.188 1.738.603.45.415.684.94.694 1.575.01.569-.152 1.047-.484 1.44a1.626 1.626 0 0 1-1.264.606c-.528.007-1.06-.225-1.602-.7-.542-.474-.962-.709-1.27-.704-.483.007-1.069.41-1.762 1.204s-1.03 1.606-1.016 2.436l.161 9.356c.025 1.191.313 2.011.874 2.466s1.485.656 2.774.605l.01.686-10.23.178-.01-.686ZM112.962 846.63l.01.644c-.718.095-1.226.215-1.519.359s-.44.449-.43.92c.006.222.04.432.103.63.069.2.18.493.337.876l4.541 10.35 3.53-9.266c.176-.459.337-.94.484-1.44.151-.5.224-.881.22-1.145-.01-.54-.274-.923-.787-1.148-.307-.12-.722-.195-1.25-.227l-.01-.644 5.89-.103.014.642c-.679.069-1.162.3-1.45.701-.293.4-.708 1.316-1.25 2.752l-5.738 15.044c-.107.263-.19.446-.258.544s-.166.146-.288.149c-.142.002-.26-.076-.357-.232a5.095 5.095 0 0 1-.322-.586l-6.616-15.078c-.533-1.22-1.094-2.048-1.68-2.48-.352-.245-.86-.401-1.523-.472l-.015-.644 8.364-.147ZM140.716 848.346c1.49 1.323 2.256 3.222 2.3 5.698l-13.174.23c.195 3.2.962 5.52 2.3 6.96 1.338 1.438 2.91 2.143 4.707 2.112 1.45-.025 2.67-.428 3.652-1.204s1.885-1.868 2.705-3.276l.728.234c-.537 1.77-1.568 3.418-3.1 4.941-1.53 1.524-3.424 2.305-5.675 2.344-2.602.044-4.628-.903-6.079-2.842-1.455-1.938-2.202-4.19-2.246-6.748-.049-2.78.733-5.193 2.344-7.243 1.611-2.046 3.735-3.094 6.377-3.14 1.953-.034 3.672.61 5.161 1.934Zm-9.912 1.76c-.43.754-.728 1.701-.903 2.837l8.755-.152c-.176-1.382-.455-2.407-.84-3.078-.699-1.204-1.846-1.795-3.438-1.765-1.577.026-2.768.747-3.574 2.158ZM158.275 846.898c.556.28 1.093.671 1.616 1.174l-.112-6.597c-.015-.844-.123-1.423-.313-1.738s-.64-.466-1.348-.454a3.583 3.583 0 0 0-.434.03l-.83.097-.01-.686 1.694-.466c.62-.176 1.24-.36 1.856-.55.62-.19 1.162-.373 1.63-.549.22-.07.587-.21 1.094-.413l.127.04-.005 2.18v2.439c0 .837.01 1.662.025 2.478l.254 16.953c.014.9.137 1.528.366 1.882.225.357.815.525 1.772.51.152-.002.303-.01.455-.02s.302-.028.454-.058l.014.684-2.993 1.089-3.232 1.281-.152-.183-.044-2.553c-.761.859-1.42 1.472-1.982 1.84-.996.64-2.158.972-3.486.997-2.354.041-4.273-.835-5.767-2.63-1.49-1.794-2.256-3.887-2.3-6.28-.049-3.002.777-5.592 2.49-7.775 1.714-2.18 3.834-3.294 6.368-3.337a5.918 5.918 0 0 1 2.793.615Zm.883 16.133c.65-.65.972-1.258.962-1.824l-.156-8.902c-.03-1.796-.532-3.059-1.509-3.781-.971-.723-1.914-1.077-2.827-1.062-1.743.031-3.086.825-4.028 2.385s-1.392 3.467-1.353 5.72c.04 2.23.586 4.204 1.65 5.928 1.06 1.726 2.613 2.57 4.664 2.534 1.079-.02 1.943-.351 2.597-.998ZM21.263 910.284c1.616-.178 2.622-.518 3.013-1.013.395-.496.576-1.616.547-3.367l-.323-18.403c-.024-1.48-.268-2.451-.727-2.913-.46-.464-1.446-.744-2.969-.842l-.015-.789 11.201-.195c3.6-.061 6.363.588 8.296 1.953 1.934 1.362 2.92 3.186 2.96 5.469.053 2.89-.972 5.005-3.062 6.343-2.095 1.335-4.732 2.033-7.915 2.087-.454.01-1.04.007-1.753 0s-1.245-.01-1.587-.002l.132 7.717c.03 1.597.293 2.598.79 3 .499.406 1.597.655 3.302.747l.014.789-11.89.208-.014-.789Zm13.901-25.21c-1.21-.505-2.734-.742-4.575-.71-.874.017-1.406.112-1.606.288-.196.175-.288.561-.279 1.157l.196 11.079c.761.056 1.26.09 1.494.1s.464.012.683.007c1.954-.034 3.482-.336 4.595-.91 2.012-1.045 2.998-2.95 2.95-5.718-.045-2.6-1.197-4.365-3.458-5.293ZM49.368 901.812c1.26-.852 3.78-2.021 7.559-3.513l-.034-1.765c-.025-1.411-.18-2.39-.464-2.94-.488-.917-1.47-1.364-2.95-1.337a4.055 4.055 0 0 0-2.006.573c-.63.386-.938.904-.928 1.553.005.166.044.447.122.84.073.39.113.644.117.754.01.774-.234 1.319-.742 1.631-.288.186-.63.281-1.03.288-.625.013-1.104-.183-1.445-.586a2.121 2.121 0 0 1-.523-1.35c-.014-.969.567-1.992 1.743-3.071s2.925-1.638 5.235-1.68c2.68-.046 4.516.794 5.503 2.52.527.945.805 2.331.84 4.158l.141 8.32c.015.8.083 1.355.195 1.655.19.537.572.8 1.138.791.317-.007.581-.058.786-.159s.562-.341 1.065-.725l.02 1.08a6.836 6.836 0 0 1-1.407 1.352c-.767.54-1.553.815-2.354.83-.942.017-1.626-.276-2.06-.876-.435-.603-.679-1.324-.733-2.168-1.035.932-1.923 1.626-2.66 2.08-1.246.769-2.437 1.164-3.57 1.184-1.191.02-2.227-.381-3.115-1.201-.884-.823-1.338-1.875-1.363-3.162-.034-2.007.938-3.699 2.92-5.076Zm7.574-2.475c-1.582.551-2.886 1.157-3.911 1.811-1.968 1.265-2.94 2.68-2.916 4.243.025 1.258.455 2.178 1.294 2.76a3.02 3.02 0 0 0 1.817.549c.913-.018 1.782-.289 2.612-.813.825-.528 1.235-1.185 1.22-1.973l-.116-6.577ZM75.042 891.663l.025 1.495-4.234.073.166 11.953c.02 1.05.122 1.843.313 2.38.346.95 1.006 1.414 1.977 1.4.498-.01.928-.135 1.29-.377s.77-.622 1.235-1.142l.547.446-.445.63c-.703.982-1.45 1.68-2.246 2.095s-1.567.63-2.314.642c-1.631.03-2.754-.679-3.36-2.121-.332-.782-.507-1.873-.532-3.27l-.22-12.573-2.26.04a.657.657 0 0 1-.161-.123.25.25 0 0 1-.054-.166c0-.136.03-.244.088-.322.063-.078.254-.256.58-.54.943-.805 1.622-1.457 2.032-1.955.415-.498 1.387-1.812 2.91-3.943.18-.002.288.01.322.037s.054.131.059.31l.088 5.105 4.194-.074ZM87.591 891.663l.024 1.495-4.233.073.166 11.953c.02 1.05.122 1.843.313 2.38.346.95 1.005 1.414 1.977 1.4.498-.01.928-.135 1.29-.377s.77-.622 1.235-1.142l.546.446-.444.63c-.703.982-1.45 1.68-2.246 2.095s-1.567.63-2.314.642c-1.631.03-2.754-.679-3.36-2.121-.332-.782-.508-1.873-.532-3.27l-.22-12.573-2.26.04a.657.657 0 0 1-.162-.123.25.25 0 0 1-.053-.166c0-.136.029-.244.088-.322.063-.078.253-.256.58-.54.943-.805 1.622-1.457 2.032-1.955.415-.498 1.387-1.812 2.91-3.943.18-.002.288.01.322.037s.054.131.059.31l.088 5.105 4.194-.074ZM104.212 893.346c1.49 1.323 2.256 3.222 2.3 5.698l-13.174.23c.195 3.2.962 5.52 2.3 6.96 1.338 1.438 2.91 2.143 4.707 2.112 1.45-.025 2.67-.428 3.652-1.204s1.885-1.868 2.705-3.276l.728.234c-.537 1.77-1.567 3.418-3.1 4.941-1.529 1.524-3.424 2.305-5.674 2.344-2.603.044-4.63-.903-6.08-2.842-1.455-1.938-2.202-4.19-2.246-6.748-.049-2.78.733-5.193 2.344-7.243 1.611-2.046 3.735-3.094 6.377-3.14 1.953-.034 3.672.61 5.161 1.934Zm-9.912 1.76c-.43.754-.727 1.701-.903 2.837l8.755-.152c-.176-1.382-.454-2.407-.84-3.078-.698-1.204-1.846-1.795-3.438-1.765-1.577.026-2.768.747-3.574 2.158ZM109.437 910.313c1.27-.132 2.11-.37 2.52-.717s.6-1.072.585-2.18l-.166-9.359c-.024-1.367-.17-2.343-.434-2.927-.269-.583-.738-.869-1.416-.86a3.795 3.795 0 0 0-.547.064c-.23.037-.469.088-.718.147l-.01-.686c.781-.288 1.582-.586 2.407-.891.82-.306 1.387-.523 1.705-.652a37.96 37.96 0 0 0 2.114-.93c.097-.003.156.031.176.1.024.068.034.215.039.434l.058 3.404c.87-1.246 1.71-2.222 2.52-2.93.815-.706 1.665-1.067 2.553-1.082.708-.012 1.285.188 1.739.603.449.415.683.94.693 1.575.01.569-.151 1.047-.483 1.44a1.626 1.626 0 0 1-1.265.606c-.527.007-1.06-.225-1.601-.7-.542-.474-.962-.709-1.27-.704-.483.007-1.07.41-1.763 1.204s-1.03 1.606-1.015 2.436l.16 9.356c.025 1.191.313 2.011.875 2.466s1.484.656 2.773.605l.01.686-10.23.178-.01-.686ZM124.906 910.472c.981-.142 1.665-.4 2.05-.774.39-.373.572-1.196.552-2.468l-.185-10.542c-.015-.877-.108-1.494-.284-1.848-.268-.515-.815-.767-1.63-.755a3.42 3.42 0 0 0-.381.03c-.132.014-.298.039-.489.07l-.014-.727c.566-.176 1.9-.628 4.004-1.355l1.938-.679c.098-.002.156.032.18.1.02.071.035.166.035.29l.054 3.05c1.25-1.21 2.231-2.043 2.94-2.5 1.064-.696 2.177-1.055 3.339-1.074a4.362 4.362 0 0 1 2.578.764c1.514 1.025 2.29 2.886 2.339 5.584l.166 9.69c.02.996.23 1.71.635 2.148.405.434 1.074.652 2.011.65l.01.58-8.862.154-.01-.58c1.006-.157 1.71-.448 2.1-.877.395-.43.58-1.35.556-2.762l-.156-8.86c-.02-1.188-.259-2.17-.713-2.944s-1.27-1.15-2.451-1.13c-.815.014-1.636.305-2.46.874-.465.327-1.06.862-1.793 1.609l.205 11.618c.015.997.25 1.66.698 1.99.45.332 1.153.503 2.105.515l.01.581-9.068.159-.01-.581ZM281.026 980.98c1.626.43 2.534.644 2.73.64.4-.005.78-.123 1.137-.352s.596-.576.728-1.05l.893-.015.562 9.537-.977.014c-.6-1.885-1.367-3.398-2.3-4.546-1.782-2.153-4.145-3.208-7.094-3.154-2.974.054-5.381 1.27-7.232 3.652-1.845 2.388-2.734 5.64-2.66 9.761.068 3.79 1.113 6.802 3.134 9.028 2.026 2.227 4.56 3.311 7.603 3.257 2.202-.034 4.218-.595 6.054-1.68 1.055-.615 2.207-1.533 3.457-2.758l.801.776c-.918 1.206-2.07 2.27-3.452 3.194-2.349 1.562-4.917 2.368-7.695 2.416-4.566.079-8.218-1.318-10.953-4.189-2.524-2.656-3.818-6-3.891-10.039-.069-4.136 1.177-7.632 3.74-10.483 2.705-2.998 6.26-4.532 10.674-4.61 1.533-.024 3.115.176 4.741.6ZM290.997 1008.529c1.284-.147 2.153-.425 2.602-.826s.664-1.176.645-2.324l-.352-20.273c-.02-.913-.107-1.538-.263-1.885-.288-.576-.855-.854-1.695-.84-.195 0-.405.025-.634.073-.225.044-.513.113-.855.2l-.015-.683c1.86-.532 4.097-1.235 6.71-2.11.097-.004.156.04.18.123.02.083.034.258.04.537l.434 24.878c.02 1.2.244 1.977.664 2.324s1.28.557 2.583.63l.01.58-10.044.177-.01-.581ZM307.09 999.954c1.26-.854 3.78-2.021 7.56-3.515l-.035-1.763c-.024-1.411-.18-2.392-.464-2.94-.488-.917-1.47-1.367-2.95-1.337a4.053 4.053 0 0 0-2.006.571c-.63.386-.937.903-.928 1.553.005.166.044.449.122.84.074.39.113.644.118.756.01.772-.235 1.319-.743 1.631-.288.186-.63.279-1.03.288-.625.01-1.103-.185-1.445-.586-.337-.405-.513-.854-.523-1.352-.014-.967.567-1.992 1.744-3.071s2.924-1.636 5.234-1.68c2.68-.044 4.517.796 5.503 2.52.527.947.805 2.333.84 4.16l.141 8.32c.015.8.083 1.352.196 1.655.19.537.57.801 1.137.791.318-.01.581-.058.786-.16.205-.099.562-.343 1.065-.724l.02 1.08a6.9 6.9 0 0 1-1.407 1.352c-.766.537-1.553.816-2.353.83-.943.015-1.626-.278-2.06-.879s-.68-1.323-.733-2.168c-1.035.933-1.924 1.626-2.661 2.08-1.246.772-2.437 1.167-3.57 1.187-1.191.02-2.226-.381-3.115-1.201-.884-.825-1.338-1.875-1.362-3.164-.035-2.007.937-3.697 2.92-5.074Zm7.574-2.475c-1.582.552-2.886 1.157-3.911 1.811-1.968 1.265-2.94 2.681-2.915 4.244.024 1.254.454 2.177 1.294 2.758a3.018 3.018 0 0 0 1.816.547c.913-.014 1.782-.288 2.612-.81.826-.528 1.236-1.187 1.221-1.973l-.117-6.577ZM324.39 1002.591l.689-.015c.342 1.573.79 2.779 1.343 3.609.996 1.533 2.422 2.285 4.287 2.25 1.035-.019 1.845-.317 2.436-.902s.88-1.333.865-2.247c-.015-.58-.196-1.137-.552-1.67-.357-.537-.972-1.05-1.85-1.547l-2.35-1.285c-1.713-.883-2.983-1.782-3.803-2.695s-1.24-1.997-1.26-3.257c-.03-1.552.503-2.832 1.592-3.847s2.47-1.538 4.145-1.568c.733-.014 1.543.113 2.422.371.884.264 1.382.391 1.494.391.25-.005.425-.039.538-.112a.898.898 0 0 0 .283-.337l.498-.01.249 5.786-.645.01c-.302-1.333-.693-2.373-1.177-3.11-.878-1.368-2.128-2.041-3.75-2.012-.966.02-1.723.327-2.265.932s-.806 1.31-.796 2.11c.024 1.274.996 2.392 2.925 3.354l2.763 1.426c2.974 1.553 4.483 3.394 4.517 5.523.03 1.635-.557 2.978-1.763 4.038-1.2 1.06-2.793 1.606-4.765 1.64-.83.015-1.773-.107-2.827-.366s-1.675-.386-1.87-.38a.603.603 0 0 0-.43.18c-.122.122-.22.264-.283.43l-.542.01-.118-6.7ZM341.666 1002.591l.688-.015c.342 1.573.791 2.779 1.343 3.609.996 1.533 2.422 2.285 4.287 2.25 1.035-.019 1.846-.317 2.437-.902s.879-1.333.864-2.247c-.015-.58-.195-1.137-.552-1.67-.356-.537-.972-1.05-1.85-1.547l-2.35-1.285c-1.713-.883-2.982-1.782-3.803-2.695s-1.24-1.997-1.26-3.257c-.029-1.552.503-2.832 1.592-3.847s2.471-1.538 4.146-1.568c.732-.014 1.543.113 2.422.371.883.264 1.381.391 1.494.391.249-.005.425-.039.537-.112a.898.898 0 0 0 .283-.337l.498-.01.25 5.786-.645.01c-.303-1.333-.694-2.373-1.177-3.11-.879-1.368-2.129-2.041-3.75-2.012-.967.02-1.724.327-2.266.932s-.805 1.31-.796 2.11c.025 1.274.996 2.392 2.925 3.354l2.764 1.426c2.973 1.553 4.482 3.394 4.516 5.523.03 1.635-.556 2.978-1.762 4.038-1.201 1.06-2.793 1.606-4.766 1.64-.83.015-1.772-.107-2.827-.366s-1.675-.386-1.87-.38a.603.603 0 0 0-.43.18c-.122.122-.22.264-.283.43l-.542.01-.117-6.7ZM357.662 1008.529c1.48-.166 2.407-.435 2.788-.806.38-.376.557-1.372.527-2.988l-.17-9.898c-.015-.898-.088-1.518-.22-1.865-.22-.562-.66-.84-1.324-.825-.15 0-.297.014-.444.049-.146.029-.561.146-1.25.351l-.01-.644.884-.303c2.407-.83 4.087-1.455 5.034-1.875.386-.171.63-.259.742-.259.03.093.044.195.05.308l.258 14.897c.025 1.577.234 2.564.62 2.96.39.395 1.255.634 2.598.722l.01.58-10.083.177-.01-.581Zm2.812-27.803c.41-.435.918-.654 1.529-.67.59-.009 1.103.191 1.533.606.43.41.65.923.66 1.529.009.59-.191 1.098-.606 1.528a2.087 2.087 0 0 1-1.514.654 2.09 2.09 0 0 1-1.548-.6c-.42-.415-.64-.918-.65-1.509s.191-1.104.596-1.538ZM384.097 990.692c1.27.864 1.914 1.83 1.934 2.89.005.454-.146.884-.459 1.28-.308.4-.796.605-1.46.615a1.848 1.848 0 0 1-1.284-.474c-.376-.327-.65-.805-.825-1.44l-.269-.991c-.19-.728-.513-1.246-.962-1.538-.459-.284-1.064-.42-1.811-.406-1.577.03-2.896.738-3.955 2.139-1.065 1.396-1.573 3.237-1.534 5.522.035 2.09.664 3.955 1.89 5.601 1.226 1.64 2.857 2.441 4.893 2.407 1.435-.024 2.705-.517 3.813-1.48.625-.551 1.328-1.425 2.11-2.617l.59.342c-.761 1.675-1.567 3.008-2.422 3.99-1.64 1.884-3.564 2.846-5.761 2.885-2.158.04-4.082-.781-5.772-2.45-1.69-1.676-2.558-3.97-2.612-6.886-.049-2.866.815-5.341 2.588-7.436 1.777-2.09 4.048-3.164 6.816-3.213 1.729-.03 3.228.39 4.492 1.26ZM393.4 999.954c1.259-.854 3.778-2.021 7.558-3.515l-.034-1.763c-.025-1.411-.181-2.392-.464-2.94-.489-.917-1.47-1.367-2.95-1.337a4.053 4.053 0 0 0-2.006.571c-.63.386-.938.903-.928 1.553.005.166.044.449.122.84.073.39.112.644.117.756.01.772-.234 1.319-.742 1.631-.288.186-.63.279-1.03.288-.625.01-1.104-.185-1.446-.586-.336-.405-.512-.854-.522-1.352-.015-.967.566-1.992 1.743-3.071s2.925-1.636 5.234-1.68c2.681-.044 4.517.796 5.503 2.52.528.947.806 2.333.84 4.16l.142 8.32c.015.8.083 1.352.195 1.655.19.537.571.801 1.138.791.317-.01.58-.058.786-.16.205-.099.562-.343 1.064-.724l.02 1.08a6.9 6.9 0 0 1-1.406 1.352c-.767.537-1.553.816-2.354.83-.942.015-1.626-.278-2.06-.879s-.679-1.323-.733-2.168c-1.035.933-1.924 1.626-2.66 2.08-1.246.772-2.437 1.167-3.57 1.187-1.192.02-2.227-.381-3.115-1.201-.884-.825-1.338-1.875-1.363-3.164-.034-2.007.938-3.697 2.92-5.074Zm7.572-2.475c-1.582.552-2.885 1.157-3.91 1.811-1.968 1.265-2.94 2.681-2.916 4.244.025 1.254.454 2.177 1.294 2.758a3.018 3.018 0 0 0 1.817.547c.913-.014 1.782-.288 2.612-.81.825-.528 1.235-1.187 1.22-1.973l-.117-6.577ZM409.449 1008.529c1.284-.147 2.153-.425 2.603-.826s.664-1.176.644-2.324l-.352-20.273c-.019-.913-.107-1.538-.263-1.885-.288-.576-.855-.854-1.695-.84-.195 0-.405.025-.634.073-.225.044-.513.113-.855.2l-.014-.683c1.86-.532 4.096-1.235 6.709-2.11.097-.004.156.04.18.123.02.083.034.258.04.537l.434 24.878c.02 1.2.244 1.977.664 2.324s1.28.557 2.583.63l.01.58-10.044.177-.01-.581ZM250.723 1053.426c1.617-.18 2.622-.517 3.013-1.016.396-.493.576-1.616.547-3.364l-.322-18.403c-.025-1.48-.269-2.451-.728-2.915s-1.445-.742-2.969-.84l-.014-.791 11.2-.195c3.6-.059 6.363.59 8.297 1.953s2.92 3.188 2.959 5.469c.054 2.89-.972 5.004-3.062 6.342-2.094 1.338-4.731 2.036-7.915 2.09-.454.01-1.04.005-1.753 0-.713-.01-1.245-.01-1.587-.005l.132 7.72c.03 1.597.293 2.598.791 2.998.498.405 1.597.654 3.301.747l.015.791-11.89.205-.015-.786Zm13.902-25.21c-1.211-.508-2.735-.742-4.575-.713-.874.02-1.407.113-1.607.288-.195.176-.288.562-.278 1.158l.195 11.079c.762.058 1.26.092 1.494.102s.464.01.684.005c1.953-.034 3.481-.337 4.595-.908 2.011-1.045 2.998-2.95 2.949-5.718-.044-2.602-1.196-4.365-3.457-5.293ZM274.61 1053.455c1.27-.131 2.11-.37 2.52-.717s.6-1.07.586-2.178l-.166-9.36c-.025-1.368-.171-2.344-.435-2.925-.269-.586-.737-.87-1.416-.86-.137 0-.322.025-.547.064-.23.034-.469.088-.718.146l-.01-.688c.782-.288 1.583-.586 2.408-.889.82-.307 1.387-.522 1.704-.654a37.879 37.879 0 0 0 2.114-.928c.098-.005.156.03.176.098.024.068.034.215.039.434l.059 3.404c.869-1.245 1.709-2.222 2.52-2.93.815-.703 1.664-1.064 2.553-1.08.708-.014 1.284.186 1.738.601.45.416.684.943.693 1.578.01.566-.15 1.045-.483 1.44s-.757.596-1.265.606c-.527.004-1.06-.225-1.601-.704-.542-.473-.962-.708-1.27-.703-.483.01-1.069.41-1.762 1.206-.694.791-1.03 1.607-1.016 2.437l.161 9.355c.025 1.192.313 2.012.874 2.466s1.485.654 2.774.606l.01.683-10.23.18-.01-.688ZM303.878 1036.488c1.489 1.323 2.256 3.222 2.3 5.698l-13.174.23c.195 3.198.962 5.517 2.3 6.957s2.91 2.144 4.707 2.115c1.45-.025 2.67-.43 3.652-1.206s1.885-1.866 2.705-3.277l.727.235c-.537 1.772-1.567 3.418-3.1 4.941-1.528 1.523-3.423 2.305-5.674 2.344-2.602.044-4.629-.904-6.08-2.842-1.454-1.939-2.201-4.19-2.245-6.748-.049-2.778.732-5.19 2.344-7.241 1.61-2.046 3.735-3.096 6.377-3.14 1.953-.034 3.671.61 5.16 1.934Zm-9.912 1.757c-.43.757-.728 1.705-.904 2.837l8.755-.151c-.176-1.382-.454-2.407-.84-3.076-.698-1.206-1.845-1.797-3.437-1.768-1.577.03-2.769.747-3.574 2.158ZM321.441 1035.037a6.765 6.765 0 0 1 1.616 1.177l-.112-6.597c-.015-.844-.122-1.425-.312-1.738-.19-.317-.64-.469-1.348-.454-.166 0-.313.01-.435.03-.122.014-.4.043-.83.097l-.01-.688 1.695-.464a80.94 80.94 0 0 0 1.855-.552c.62-.19 1.162-.371 1.631-.547.22-.073.586-.21 1.094-.415l.127.04-.005 2.182v2.436c0 .84.01 1.665.024 2.48l.254 16.954c.015.898.137 1.528.367 1.88.224.356.815.527 1.772.512.151-.004.303-.01.454-.02s.303-.028.454-.058l.015.684c-.083.03-1.08.39-2.993 1.089l-3.233 1.28-.151-.182-.044-2.553c-.762.86-1.421 1.47-1.982 1.84-.997.64-2.159.972-3.487.997-2.353.039-4.272-.835-5.766-2.632-1.49-1.792-2.256-3.887-2.3-6.28-.05-3.002.776-5.59 2.49-7.773s3.833-3.296 6.367-3.34a5.977 5.977 0 0 1 2.793.615Zm.884 16.133c.65-.65.972-1.255.962-1.821l-.156-8.901c-.03-1.797-.533-3.062-1.51-3.785-.97-.722-1.913-1.074-2.826-1.06-1.743.03-3.086.826-4.029 2.384-.942 1.562-1.391 3.466-1.352 5.722.039 2.227.586 4.204 1.65 5.928 1.06 1.724 2.613 2.568 4.663 2.534 1.08-.02 1.944-.351 2.598-1ZM331.734 1053.529c1.48-.166 2.407-.435 2.788-.806.381-.376.557-1.372.528-2.988l-.171-9.898c-.015-.898-.088-1.518-.22-1.865-.22-.562-.66-.84-1.323-.825-.152 0-.298.014-.445.049-.146.029-.561.146-1.25.351l-.01-.644.884-.303c2.408-.83 4.087-1.455 5.035-1.875.385-.171.63-.259.742-.259.029.093.044.195.049.308l.258 14.897c.025 1.577.235 2.564.62 2.96.391.395 1.255.634 2.598.722l.01.58-10.083.177-.01-.581Zm2.813-27.803c.41-.435.918-.654 1.528-.67.59-.009 1.103.191 1.533.606.43.41.65.923.66 1.529.01.59-.191 1.098-.606 1.528a2.087 2.087 0 0 1-1.514.654 2.09 2.09 0 0 1-1.548-.6c-.42-.415-.64-.918-.65-1.509s.191-1.104.597-1.538ZM358.18 1035.692c1.269.864 1.914 1.83 1.933 2.89.005.454-.146.884-.459 1.28-.308.4-.796.605-1.46.615a1.848 1.848 0 0 1-1.284-.474c-.376-.327-.65-.805-.825-1.44l-.269-.991c-.19-.728-.513-1.246-.962-1.538-.459-.284-1.064-.42-1.811-.406-1.577.03-2.896.738-3.955 2.139-1.065 1.396-1.573 3.237-1.534 5.522.035 2.09.665 3.955 1.89 5.601 1.226 1.64 2.857 2.441 4.893 2.407 1.435-.024 2.705-.517 3.813-1.48.625-.551 1.328-1.425 2.11-2.617l.59.342c-.761 1.675-1.567 3.008-2.422 3.99-1.64 1.884-3.564 2.846-5.761 2.885-2.158.04-4.082-.781-5.772-2.45-1.69-1.676-2.558-3.97-2.612-6.886-.049-2.866.815-5.341 2.588-7.436 1.777-2.09 4.048-3.164 6.816-3.213 1.729-.03 3.228.39 4.492 1.26ZM373.54 1034.803l.025 1.494-4.233.073.166 11.954c.02 1.05.122 1.845.312 2.382.347.948 1.006 1.411 1.978 1.397.498-.01.928-.132 1.289-.376.361-.24.771-.62 1.235-1.143l.547.45-.444.63c-.703.98-1.45 1.68-2.246 2.094s-1.568.63-2.315.64c-1.63.03-2.754-.679-3.36-2.12-.331-.78-.507-1.874-.531-3.27l-.22-12.574-2.26.039a.555.555 0 0 1-.162-.122.242.242 0 0 1-.054-.166c0-.137.03-.244.088-.322.064-.079.254-.254.581-.538.943-.805 1.621-1.46 2.032-1.958.415-.498 1.386-1.811 2.91-3.94.18-.005.288.01.322.034.034.03.054.132.059.313l.087 5.102 4.195-.073ZM376.431 1053.529c1.48-.166 2.408-.435 2.788-.806.381-.376.557-1.372.528-2.988l-.171-9.898c-.015-.898-.088-1.518-.22-1.865-.22-.562-.659-.84-1.323-.825-.151 0-.298.014-.444.049-.147.029-.562.146-1.25.351l-.01-.644.884-.303c2.407-.83 4.087-1.455 5.034-1.875.386-.171.63-.259.742-.259.03.093.044.195.049.308l.259 14.897c.024 1.577.234 2.564.62 2.96.39.395 1.255.634 2.597.722l.01.58-10.083.177-.01-.581Zm2.813-27.803c.41-.435.918-.654 1.528-.67.591-.009 1.104.191 1.533.606.43.41.65.923.66 1.529.01.59-.19 1.098-.606 1.528a2.087 2.087 0 0 1-1.514.654 2.09 2.09 0 0 1-1.547-.6c-.42-.415-.64-.918-.65-1.509s.19-1.104.596-1.538ZM391.568 1037.533c1.719-1.934 3.95-2.925 6.704-2.974 2.74-.044 5.025.815 6.856 2.583 1.826 1.763 2.768 4.14 2.822 7.129.044 2.754-.781 5.16-2.49 7.226-1.71 2.06-3.946 3.12-6.714 3.17-2.652.043-4.917-.894-6.792-2.808-1.875-1.92-2.837-4.35-2.886-7.3-.049-2.754.786-5.093 2.5-7.026Zm3.306-.586c-1.367 1.279-2.022 3.466-1.968 6.547.044 2.466.645 4.751 1.797 6.86 1.152 2.115 2.72 3.15 4.702 3.116 1.553-.03 2.734-.762 3.545-2.197.815-1.44 1.201-3.316 1.162-5.625a14.872 14.872 0 0 0-1.719-6.739c-1.103-2.094-2.666-3.13-4.692-3.09a4.111 4.111 0 0 0-2.827 1.128ZM410.9 1053.612c.98-.142 1.664-.4 2.05-.772.39-.376.571-1.196.552-2.47l-.186-10.543c-.014-.874-.107-1.494-.283-1.845-.269-.518-.815-.767-1.63-.757a5.196 5.196 0 0 0-.382.03c-.132.014-.298.038-.488.072l-.015-.727c.567-.176 1.9-.63 4.004-1.358l1.939-.678c.097 0 .156.034.18.102.02.069.035.166.035.288l.053 3.052c1.25-1.21 2.232-2.046 2.94-2.5 1.064-.698 2.177-1.055 3.34-1.074a4.342 4.342 0 0 1 2.578.762c1.513 1.025 2.29 2.885 2.339 5.586l.166 9.687c.02.996.229 1.714.634 2.149s1.075.654 2.012.649l.01.581-8.862.156-.01-.58c1.006-.157 1.709-.45 2.1-.88.395-.43.58-1.347.556-2.758l-.156-8.863c-.02-1.186-.26-2.168-.713-2.944-.454-.772-1.27-1.148-2.451-1.128-.816.015-1.636.303-2.461.874-.464.327-1.06.86-1.792 1.606l.205 11.621c.014.997.249 1.66.698 1.988.45.332 1.152.503 2.105.517l.01.581-9.068.157-.01-.581ZM509.244 1174.935l18.179-26.343-9.795.171c-2.461.04-4.2.688-5.215 1.938-.61.743-1.08 2.017-1.411 3.824l-1.099.014.723-7.275 22.431-.39.01.478-18.179 26.343 11.026-.19c2.5-.045 4.311-.665 5.44-1.861.698-.762 1.318-2.134 1.855-4.121l.996-.02-.928 7.49-24.028.42-.005-.478ZM550.216 1157.655c1.489 1.323 2.255 3.222 2.3 5.698l-13.174.23c.195 3.202.961 5.522 2.3 6.962 1.337 1.436 2.91 2.144 4.706 2.11 1.45-.025 2.671-.425 3.653-1.202s1.885-1.87 2.705-3.276l.727.234c-.537 1.768-1.567 3.418-3.1 4.942-1.529 1.523-3.423 2.305-5.674 2.344-2.603.044-4.629-.904-6.08-2.842-1.454-1.939-2.201-4.19-2.245-6.748-.05-2.783.732-5.196 2.343-7.246 1.612-2.046 3.736-3.091 6.377-3.14 1.954-.034 3.672.61 5.162 1.934Zm-9.913 1.762c-.43.752-.727 1.7-.903 2.837l8.755-.151c-.176-1.382-.454-2.407-.84-3.081-.698-1.201-1.846-1.792-3.437-1.763-1.577.025-2.769.747-3.575 2.158ZM555.435 1174.622c1.27-.131 2.11-.37 2.52-.717s.6-1.07.586-2.178l-.166-9.36c-.025-1.368-.171-2.344-.435-2.925-.268-.586-.737-.87-1.416-.86-.137 0-.322.025-.547.064-.23.034-.468.088-.717.146l-.01-.688c.781-.288 1.582-.586 2.407-.889.82-.307 1.387-.522 1.704-.654a37.879 37.879 0 0 0 2.114-.928c.098-.005.157.03.176.098.025.068.034.215.04.434l.058 3.404c.869-1.245 1.709-2.222 2.52-2.93.815-.703 1.664-1.064 2.553-1.08.708-.014 1.284.186 1.738.601.45.415.684.943.694 1.578.01.566-.152 1.045-.484 1.44s-.757.596-1.264.606c-.528.004-1.06-.225-1.602-.704-.542-.473-.962-.708-1.27-.703-.483.01-1.069.41-1.762 1.206-.694.791-1.03 1.607-1.016 2.437l.161 9.355c.025 1.192.313 2.012.874 2.466s1.485.654 2.774.606l.01.683-10.23.18-.01-.688ZM573.565 1158.7c1.719-1.93 3.95-2.92 6.704-2.97 2.74-.048 5.025.811 6.856 2.579 1.826 1.767 2.768 4.145 2.822 7.134.044 2.749-.781 5.16-2.49 7.221-1.71 2.066-3.946 3.12-6.714 3.17-2.651.048-4.917-.89-6.792-2.808s-2.837-4.35-2.886-7.295c-.049-2.754.786-5.098 2.5-7.031Zm3.306-.586c-1.367 1.284-2.022 3.466-1.968 6.552.044 2.461.645 4.746 1.797 6.86 1.152 2.11 2.72 3.15 4.702 3.116 1.553-.03 2.734-.762 3.545-2.202.815-1.44 1.201-3.316 1.162-5.625a14.836 14.836 0 0 0-1.719-6.734c-1.103-2.1-2.666-3.13-4.692-3.095-1.094.02-2.036.395-2.827 1.128ZM593.61 1164.368l10.497-.18.049 2.656-10.503.18-.044-2.656ZM607.5 1174.598c1.67-.21 2.706-.532 3.106-.972.4-.444.586-1.577.552-3.408l-.317-18.403c-.03-1.509-.274-2.49-.738-2.945-.464-.459-1.489-.727-3.066-.81l-.015-.786 22.637-.396.254 6.074-1.182.025c-.327-1.939-.893-3.16-1.704-3.662-.815-.498-2.402-.733-4.766-.689l-5.825.103c-.571.01-.932.112-1.089.307s-.23.577-.22 1.148l.167 9.482 6.162-.112c1.811-.03 2.964-.317 3.452-.864s.87-1.64 1.143-3.281l.996-.02.17 9.814-.996.02c-.346-1.64-.771-2.725-1.279-3.247s-1.66-.772-3.457-.737l-6.162.107.161 9.292c.03 1.558.283 2.549.767 2.974.488.424 1.533.683 3.14.78l.014.787-11.89.21-.014-.791ZM632.227 1174.696c1.48-.162 2.408-.43 2.788-.806.381-.371.557-1.367.528-2.988l-.171-9.898c-.015-.898-.088-1.518-.22-1.86-.22-.567-.66-.84-1.323-.83-.152.005-.298.02-.444.049s-.562.151-1.25.356l-.01-.644.884-.308c2.407-.83 4.086-1.455 5.034-1.87.385-.176.63-.264.742-.264.03.098.044.2.049.313l.259 14.897c.024 1.577.234 2.559.62 2.954.39.396 1.255.635 2.597.723l.01.58-10.083.177-.01-.581Zm2.813-27.798c.41-.435.918-.66 1.528-.67.59-.009 1.104.191 1.533.601.43.415.65.923.66 1.529a2.06 2.06 0 0 1-.606 1.528c-.415.43-.918.65-1.514.66-.61.009-1.123-.191-1.547-.606a2.08 2.08 0 0 1-.65-1.504c-.01-.596.19-1.109.596-1.538ZM658.507 1157.655c1.489 1.323 2.255 3.222 2.3 5.698l-13.174.23c.195 3.202.961 5.522 2.3 6.962 1.337 1.436 2.91 2.144 4.706 2.11 1.45-.025 2.671-.425 3.653-1.202s1.885-1.87 2.705-3.276l.727.234c-.537 1.768-1.567 3.418-3.1 4.942-1.529 1.523-3.423 2.305-5.674 2.344-2.603.044-4.629-.904-6.08-2.842-1.454-1.939-2.201-4.19-2.245-6.748-.05-2.783.732-5.196 2.344-7.246 1.61-2.046 3.735-3.091 6.376-3.14 1.954-.034 3.672.61 5.162 1.934Zm-9.913 1.762c-.43.752-.727 1.7-.903 2.837l8.755-.151c-.176-1.382-.454-2.407-.84-3.081-.698-1.201-1.845-1.792-3.437-1.763-1.577.025-2.769.747-3.575 2.158ZM664.415 1174.696c1.284-.147 2.153-.42 2.602-.826.45-.4.664-1.176.645-2.324l-.352-20.268c-.02-.913-.107-1.543-.263-1.885-.288-.576-.855-.86-1.695-.845a3.9 3.9 0 0 0-.634.073c-.225.05-.513.113-.855.205l-.015-.688c1.86-.527 4.097-1.23 6.71-2.11.097 0 .156.04.18.123.02.083.034.263.04.542l.434 24.878c.02 1.2.244 1.977.664 2.319.42.347 1.279.557 2.583.63l.01.58-10.044.177-.01-.581ZM688.614 1156.21a6.608 6.608 0 0 1 1.616 1.171l-.112-6.597c-.015-.844-.122-1.42-.313-1.738-.19-.312-.64-.464-1.347-.454-.166.005-.313.015-.435.03s-.4.048-.83.097l-.01-.684 1.695-.468a80.83 80.83 0 0 0 1.855-.547c.62-.19 1.162-.376 1.631-.552.22-.068.586-.21 1.094-.41l.127.039-.005 2.178v2.441c0 .835.01 1.66.024 2.476l.254 16.953c.015.903.137 1.528.366 1.885.225.356.816.522 1.773.507.151 0 .303-.01.454-.02s.303-.028.454-.058l.015.684c-.083.03-1.08.395-2.993 1.089l-3.233 1.284-.151-.186-.044-2.553c-.762.859-1.421 1.474-1.983 1.84-.996.64-2.158.972-3.486.997-2.353.044-4.272-.835-5.767-2.627-1.489-1.797-2.255-3.887-2.3-6.28-.048-3.003.777-5.595 2.49-7.778 1.715-2.178 3.834-3.291 6.368-3.335a5.86 5.86 0 0 1 2.793.615Zm.884 16.132c.65-.65.971-1.26.962-1.826l-.157-8.901c-.029-1.797-.532-3.057-1.508-3.78-.972-.722-1.914-1.079-2.827-1.064-1.744.034-3.086.825-4.029 2.388-.942 1.557-1.391 3.466-1.352 5.717.039 2.232.586 4.204 1.65 5.928 1.06 1.729 2.612 2.573 4.663 2.534 1.08-.02 1.944-.351 2.598-.996ZM541.427 1219.593c1.616-.176 2.622-.518 3.012-1.01.396-.499.576-1.617.547-3.37l-.322-18.403c-.025-1.48-.269-2.451-.728-2.91-.459-.464-1.445-.747-2.968-.845l-.015-.786 11.201-.195c3.599-.064 6.362.585 8.296 1.953 1.934 1.362 2.92 3.183 2.959 5.468.054 2.891-.972 5.005-3.062 6.343-2.094 1.333-4.731 2.031-7.915 2.085-.454.01-1.04.01-1.753 0-.712-.005-1.245-.01-1.586 0l.131 7.715c.03 1.597.293 2.598.791 3.003s1.597.654 3.301.747l.015.786-11.89.21-.014-.79Zm13.9-25.21c-1.21-.503-2.733-.742-4.574-.708-.874.015-1.407.112-1.607.288-.195.176-.288.562-.278 1.157l.195 11.08c.762.053 1.26.087 1.494.097s.464.015.684.01c1.953-.034 3.481-.337 4.595-.913 2.011-1.045 2.998-2.95 2.949-5.718-.044-2.598-1.196-4.365-3.457-5.293ZM569.532 1211.121c1.26-.85 3.78-2.021 7.559-3.51l-.035-1.768c-.024-1.411-.18-2.388-.463-2.94-.489-.917-1.47-1.362-2.95-1.337a4.058 4.058 0 0 0-2.007.576c-.63.386-.937.903-.927 1.553.005.166.044.444.122.84.073.39.112.644.117.751.01.777-.234 1.319-.742 1.631-.288.186-.63.283-1.03.288-.625.015-1.104-.18-1.446-.586a2.11 2.11 0 0 1-.522-1.347c-.015-.972.566-1.992 1.743-3.072s2.925-1.64 5.234-1.68c2.681-.048 4.517.792 5.503 2.52.528.943.806 2.33.84 4.156l.142 8.32c.014.8.083 1.357.195 1.655.19.537.571.801 1.138.791.317-.005.58-.058.786-.156.205-.103.561-.342 1.064-.728l.02 1.08a6.772 6.772 0 0 1-1.406 1.352c-.767.542-1.553.815-2.354.83-.942.02-1.626-.273-2.06-.874-.435-.605-.68-1.323-.733-2.168-1.035.933-1.924 1.626-2.661 2.08-1.245.767-2.437 1.162-3.57 1.182-1.19.02-2.226-.381-3.115-1.201-.883-.82-1.338-1.875-1.362-3.16-.034-2.006.938-3.7 2.92-5.078Zm7.573-2.475c-1.582.552-2.886 1.157-3.91 1.811-1.969 1.265-2.94 2.681-2.916 4.243.024 1.26.454 2.178 1.294 2.76.547.38 1.152.56 1.816.551.913-.02 1.783-.288 2.613-.815.825-.528 1.235-1.182 1.22-1.973l-.117-6.577ZM595.206 1200.975l.024 1.494-4.233.073.166 11.953c.02 1.05.122 1.841.312 2.378.347.952 1.006 1.416 1.978 1.402.498-.01.928-.137 1.289-.376.361-.244.771-.625 1.235-1.143l.547.444-.444.63c-.703.982-1.45 1.68-2.246 2.095s-1.568.63-2.315.645c-1.63.029-2.754-.68-3.36-2.124-.331-.782-.507-1.87-.531-3.267l-.22-12.573-2.26.039a.806.806 0 0 1-.162-.122.26.26 0 0 1-.054-.166c0-.137.03-.244.088-.323.064-.078.254-.258.581-.542.943-.805 1.621-1.455 2.032-1.953.415-.498 1.386-1.811 2.91-3.945.18 0 .288.01.322.04.034.024.054.131.059.307l.087 5.107 4.195-.073ZM607.755 1200.975l.024 1.494-4.233.073.166 11.953c.02 1.05.122 1.841.312 2.378.347.952 1.006 1.416 1.978 1.402.498-.01.927-.137 1.289-.376.361-.244.771-.625 1.235-1.143l.547.444-.444.63c-.703.982-1.45 1.68-2.246 2.095s-1.568.63-2.315.645c-1.63.029-2.754-.68-3.36-2.124-.331-.782-.507-1.87-.531-3.267l-.22-12.573-2.261.039a.806.806 0 0 1-.161-.122.26.26 0 0 1-.054-.166c0-.137.03-.244.088-.323.064-.078.254-.258.581-.542.943-.805 1.621-1.455 2.031-1.953.415-.498 1.387-1.811 2.91-3.945.181 0 .289.01.323.04.034.024.054.131.058.307l.088 5.107 4.195-.073ZM624.376 1202.655c1.489 1.323 2.256 3.222 2.3 5.698l-13.174.23c.195 3.202.962 5.522 2.3 6.962 1.337 1.436 2.91 2.144 4.707 2.11 1.45-.025 2.67-.425 3.652-1.202s1.885-1.87 2.705-3.276l.728.234c-.538 1.768-1.568 3.418-3.101 4.942-1.528 1.523-3.423 2.305-5.674 2.344-2.602.044-4.629-.904-6.079-2.842-1.455-1.939-2.202-4.19-2.246-6.748-.049-2.783.732-5.196 2.344-7.246 1.611-2.046 3.735-3.091 6.377-3.14 1.953-.034 3.671.61 5.16 1.934Zm-9.912 1.762c-.43.752-.728 1.7-.904 2.837l8.755-.151c-.176-1.382-.454-2.407-.84-3.081-.698-1.201-1.845-1.792-3.437-1.763-1.577.025-2.769.747-3.574 2.158ZM629.6 1219.622c1.27-.131 2.11-.37 2.52-.717s.6-1.07.586-2.178l-.166-9.36c-.025-1.368-.171-2.344-.435-2.925-.268-.586-.737-.87-1.416-.86-.137 0-.322.025-.547.064-.23.034-.468.088-.717.146l-.01-.688c.781-.288 1.582-.586 2.407-.889.82-.307 1.387-.522 1.704-.654a37.879 37.879 0 0 0 2.114-.928c.098-.005.157.03.176.098.025.068.034.215.04.434l.058 3.404c.869-1.245 1.709-2.222 2.52-2.93.815-.703 1.664-1.064 2.553-1.08.708-.014 1.284.186 1.738.601.45.415.684.943.694 1.578.01.566-.152 1.045-.484 1.44s-.757.596-1.264.606c-.528.004-1.06-.225-1.602-.704-.542-.473-.962-.708-1.27-.703-.483.01-1.069.41-1.762 1.206-.693.791-1.03 1.607-1.016 2.437l.161 9.355c.025 1.192.313 2.012.874 2.466s1.485.654 2.774.606l.01.683-10.23.18-.01-.688ZM645.07 1219.784c.98-.142 1.664-.4 2.05-.777.39-.371.571-1.196.552-2.466l-.186-10.542c-.015-.879-.107-1.494-.283-1.85-.269-.513-.816-.767-1.631-.752-.122 0-.254.01-.38.03-.133.014-.299.038-.49.067l-.014-.727c.567-.176 1.9-.625 4.004-1.353l1.939-.678c.097-.005.156.029.18.097.02.074.034.166.034.293l.054 3.047c1.25-1.21 2.232-2.04 2.94-2.5 1.064-.693 2.177-1.055 3.34-1.074a4.381 4.381 0 0 1 2.578.767c1.513 1.025 2.29 2.885 2.338 5.58l.166 9.693c.02.996.23 1.709.635 2.148.406.435 1.074.65 2.012.65l.01.58-8.863.152-.01-.58c1.007-.157 1.71-.445 2.1-.875.396-.43.581-1.352.557-2.764l-.156-8.857c-.02-1.191-.26-2.173-.713-2.944-.454-.777-1.27-1.153-2.451-1.133-.816.015-1.636.308-2.461.874-.464.327-1.06.864-1.792 1.611l.205 11.616c.014.997.249 1.66.698 1.993s1.152.503 2.104.512l.01.581-9.067.162-.01-.581Z"/><path d="M483.268 470.959v76.966" style="fill:none;stroke:#231815;stroke-miterlimit:10;stroke-width:1.7px"/><path d="m483.268 544.873 6.125-3.725.138.209-3.966 9.987-2.297 10.44-2.297-10.44-3.967-9.987.105-.21 6.159 3.726Z" style="fill:#231815"/><path d="M483.268 470.959c7.545 42.412 19.301 70.794 28.893 87.89" style="fill:none;stroke:#231815;stroke-miterlimit:10;stroke-width:1.7px"/><path d="m510.66 556.189 3.255-6.388.228.106 1.87 10.582 3.529 10.09-7.438-7.677-8.621-6.415-.021-.233 7.198-.065Z" style="fill:#231815"/><path d="M483.268 470.959c-6.463 26.797-16.794 37.106-35.773 48.237" style="fill:none;stroke:#231815;stroke-miterlimit:10;stroke-width:1.7px"/><path d="m450.088 517.588 6.262 3.491-.114.224-10.645 1.474-10.214 3.149c2.65-2.382 5.3-4.763 7.949-7.146l6.733-8.376.233-.012-.204 7.196Z" style="fill:#231815"/><path d="M499.647 394.442c-4.036-2.464-4.632.571-4.632 2.058v26.135l-.935-.57-20.44-40.013v20.312c0 4.165 1.786 6.231 5.228 8.332l-.044-.027v1.404l-11.94-7.288v-1.404c4.25 2.594 5.14 1.1 5.14-2.003v-20.78c0-1.657-1.784-4.106-5.182-6.18v-1.404l7.86 4.798 18.783 36.877v-19.123c0-2.803-1.23-5.637-4.632-7.713v-1.403l10.794 6.588v1.404ZM485.474 607.137c-3.737-2.281-5.522-4.686-7.224-5.725-1.316-.803-2.72-.513-3.227-.442l-3.401-10.66 1.147.022c2.593 4.94 7.564 12.18 12.28 15.06 4.166 2.542 6.93 1.467 6.93-1.975 0-11.006-19.38-15.57-19.38-28.912 0-4.463 4.42-5.844 9.69-2.33 3.017 2.01 3.696 3.487 4.929 4.112.85.434 2.38.604 2.89.49l3.272 10.198-1.106-.292c-3.228-6.389-6.841-11.187-10.581-13.47-3.101-1.893-6.29-1.671-6.29 2.663 0 8.542 19.463 14.897 19.463 27.434 0 5.354-4.758 6.656-9.392 3.827Z"/><path d="M354.614 664.401 554.03 788.742M354.614 911.54l199.415 124.342M354.614 664.401v247.14M554.03 788.742v247.14" style="fill:none;stroke:#231815;stroke-miterlimit:10;stroke-width:2.5px"/><path d="M495.39 874.695c-23.67-12.277-20.419-34.383-41.988-45.57-21.57-11.188-29.02 8.74-52.69-3.537 23.67 12.277 20.42 34.383 41.988 45.57 21.57 11.188 29.02-8.74 52.69 3.537Z" style="fill:#00a0e9;stroke:#00a0e9;stroke-miterlimit:10;stroke-width:5px"/><path d="m632.443 830.57 199.415 124.342M632.443 1077.71l199.415 124.341M632.443 830.57v247.14M831.858 954.912v247.14" style="fill:none;stroke:#231815;stroke-miterlimit:10;stroke-width:2.5px"/><path d="m689.623 996.331 85.054 49.125" style="fill:none;stroke:#00a0e9;stroke-miterlimit:10;stroke-width:5px"/></svg>